<svg xmlns="http://www.w3.org/2000/svg" width="16" height="16" viewBox="0 0 16 16">
    <path fill="#FFF" fill-rule="nonzero" d="M14.998 4.8H14V16h.17c1.01 0 1.83-.774 1.83-1.728V5.746c0-.522-.449-.946-1.002-.946zm-2.035-2.733L11.408.315a.936.936 0 0 0-.7-.315H.937A.937.937 0 0 0 0 .938v14.124c0 .518.42.938.937.938H13.2V2.69a.938.938 0 0 0-.237-.623zM2.93 3.577h3.043a.469.469 0 0 1 0 .937H2.93a.469.469 0 0 1 0-.937zm6.997 9.293H2.93a.469.469 0 0 1 0-.937h6.997a.469.469 0 0 1 0 .937zm0-1.952H2.93a.469.469 0 0 1 0-.937h6.997a.469.469 0 0 1 0 .937zm0-1.952H2.93a.469.469 0 0 1 0-.937h6.997a.469.469 0 0 1 0 .937z"/>
</svg>
