<svg xmlns="http://www.w3.org/2000/svg" width="20" height="16" viewBox="0 0 20 16">
    <path fill="#FFF" fill-rule="nonzero" d="M10 3l6.988 6.018a.186.186 0 0 1 .012.076v6.093c0 .22-.077.41-.231.571a.731.731 0 0 1-.547.242h-4.666v-4.875H8.444V16H3.778a.733.733 0 0 1-.547-.242.798.798 0 0 1-.231-.57V9.093a.18.18 0 0 1 .006-.038.18.18 0 0 0 .006-.038L10 3zm9.862 4.45a.343.343 0 0 1 .137.255c.008.107-.02.2-.087.28l-.77.882a.43.43 0 0 1-.26.131h-.037a.392.392 0 0 1-.26-.083L10 2.038 1.416 8.915A.475.475 0 0 1 1.118 9a.429.429 0 0 1-.26-.132l-.77-.881a.376.376 0 0 1-.087-.28.342.342 0 0 1 .137-.257L9.058.31C9.322.104 9.636 0 10 0s.679.103.943.31L13.97 2.74V.417c0-.11.037-.202.111-.274a.395.395 0 0 1 .286-.107h2.381c.116 0 .212.036.286.107a.363.363 0 0 1 .111.274V5.28l2.717 2.17z"/>
</svg>
