<svg xmlns="http://www.w3.org/2000/svg" width="19" height="20" viewBox="0 0 19 20">
    <path fill="#FFF" fill-rule="nonzero" d="M4.796 8.444a4.238 4.238 0 0 1-4.75-4.832.253.253 0 0 1 .428-.142l1.287 1.284c.606.611 1.594.611 2.205 0l.788-.79c.61-.606.61-1.595 0-2.206L3.472.474a.253.253 0 0 1 .14-.428 4.23 4.23 0 0 1 3.625 1.197A4.246 4.246 0 0 1 8.441 4.8a1.8 1.8 0 0 0 .51 1.508L9.953 7.31l-.942.939-1.362-1.363a.543.543 0 0 0-.768.769l1.362 1.358-.943.94-.996-.998a1.793 1.793 0 0 0-1.507-.51zm7.835 1.508l5.82 5.821a1.892 1.892 0 0 1-2.675 2.676l-5.824-5.825.952-.948 5.651 5.653a.549.549 0 0 0 .776-.776L11.68 10.9l.951-.948zm1.61-3.009l-6.472 6.448 1.188 1.188-4.688 4.688a2.499 2.499 0 0 1-3.536 0 2.499 2.499 0 0 1 0-3.536l4.688-4.688 1.164 1.16 6.468-6.448v-2.38L17.813 1 19 2.188l-2.38 4.755h-2.38z"/>
</svg>
