<svg xmlns="http://www.w3.org/2000/svg" width="19" height="20" viewBox="0 0 19 20">
    <g fill="#FFF" fill-rule="nonzero">
        <path d="M13.684 4.449V.999c0-.55-.43-.999-.955-.999H.955C.43 0 0 .45 0 1V15.13c0 .366.207.716.51.883l7.255 3.932c.318.167.7-.066.7-.45v-3.832h4.264c.526 0 .955-.45.955-1V9.198h-1.91v3.966c0 .283-.206.5-.477.5H8.481V5.182c0-.366-.207-.716-.51-.883L3.692 2h7.606c.27 0 .478.217.478.5v1.967h1.91v-.017z"/>
        <path d="M15.654 3.475l3.005 3.184a1.018 1.018 0 0 1 0 1.42l-3.005 3.185c-.385.409-.97.425-1.355.017-.37-.392-.324-1.045.03-1.437l1.356-1.421h-5.253a.89.89 0 0 1-.693-.327c-.432-.49-.324-1.355.23-1.682a.944.944 0 0 1 .463-.13h5.253s-1.34-1.421-1.355-1.421c-.355-.376-.401-1.045-.031-1.421.37-.392.97-.376 1.355.033z"/>
    </g>
</svg>
