<svg xmlns="http://www.w3.org/2000/svg" width="13" height="17" viewBox="0 0 13 17">
    <path fill="#FFF" fill-rule="nonzero" d="M10.868 2.833h-.94c0 1.037-.842 1.88-1.879 1.88H4.23a1.882 1.882 0 0 1-1.88-1.88h-.94C.632 2.833 0 3.466 0 4.243V15.59C0 16.367.632 17 1.41 17h9.458c.778 0 1.41-.633 1.41-1.41V4.244c0-.778-.632-1.41-1.41-1.41zm-8.84 2.695a.472.472 0 1 1 .667-.667l.61.61.611-.61a.472.472 0 1 1 .668.667l-.61.61.61.611a.472.472 0 1 1-.668.668l-.61-.61-.611.61a.472.472 0 1 1-.668-.668l.61-.61-.61-.61zm1.267 8.639a1.408 1.408 0 0 1-1.406-1.408c0-.61.393-1.126.937-1.32V9.881c0-.776.631-1.407 1.407-1.407h3.812a.47.47 0 0 0 .469-.47V6.325l-.137.137a.468.468 0 1 1-.663-.663l.937-.938a.468.468 0 0 1 .663 0l.938.938a.47.47 0 0 1-.663.663l-.138-.137v1.682c0 .776-.63 1.407-1.406 1.407H4.233a.47.47 0 0 0-.47.47v1.555c.545.195.938.71.938 1.321 0 .776-.63 1.408-1.406 1.408zm6.956-.806a.472.472 0 1 1-.668.667l-.61-.61-.611.61a.472.472 0 1 1-.668-.667l.61-.611-.61-.61a.472.472 0 1 1 .668-.668l.61.61.61-.61a.472.472 0 1 1 .669.667l-.611.611.61.61zM8.355.944c.6 0 1.09.424 1.09.945 0 .52-.49.944-1.09.944H3.923c-.6 0-1.09-.423-1.09-.944 0-.52.49-.945 1.09-.945h1.06L5.11.63C5.265.253 5.678 0 6.139 0c.46 0 .874.253 1.028.63l.129.314h1.059z"/>
</svg>
