<svg xmlns="http://www.w3.org/2000/svg" width="35" height="47" viewBox="0 0 35 47">
    <g fill="none" fill-rule="nonzero">
        <path fill="#ED6362" d="M9.973 25.112l-.028 21.056 7.536-4.92L25 46.186l.028-21.047z"/>
        <path fill="#E54E4E" d="M17.481 25.112v16.135L25 46.187l.028-21.047z"/>
        <path fill="#BC5151" d="M24.999 46.94a.734.734 0 0 1-.414-.123l-7.104-4.666-7.122 4.647a.756.756 0 0 1-1.167-.63l.028-21.056c0-.198.076-.396.226-.537a.74.74 0 0 1 .527-.216l15.054.028c.414 0 .753.339.753.753l-.029 21.047a.75.75 0 0 1-.395.658.702.702 0 0 1-.357.095zm-7.518-6.445c.141 0 .292.037.414.122l6.351 4.177.028-18.902-13.548-.028-.028 18.912 6.37-4.16a.756.756 0 0 1 .413-.121z"/>
        <path fill="#FDBC4B" d="M33.965 17.49c0 1.412-1.43 2.626-1.788 3.933-.357 1.355.264 3.115-.423 4.3-.696 1.204-2.54 1.534-3.519 2.522-.978.978-1.317 2.822-2.521 3.518-1.186.687-2.955.066-4.3.424-1.308.348-2.522 1.787-3.933 1.787s-2.625-1.43-3.933-1.787c-1.354-.358-3.114.263-4.3-.424-1.204-.696-1.533-2.54-2.52-3.518-.98-.979-2.823-1.318-3.52-2.522-.686-1.185-.066-2.954-.423-4.3-.348-1.307-1.788-2.521-1.788-3.932 0-1.412 1.43-2.625 1.788-3.933.357-1.355-.263-3.114.423-4.3.697-1.204 2.54-1.534 3.52-2.521.978-.979 1.316-2.823 2.52-3.52 1.186-.686 2.955-.065 4.3-.423 1.308-.348 2.522-1.787 3.943-1.787 1.41 0 2.625 1.43 3.932 1.787 1.355.358 3.115-.263 4.3.424 1.204.696 1.534 2.54 2.522 3.519.978.978 2.822 1.317 3.518 2.521.687 1.186.066 2.954.424 4.3.348 1.308 1.778 2.521 1.778 3.933z"/>
        <path fill="#FDBC4B" d="M33.965 17.49c0 1.412-1.43 2.626-1.788 3.933-.357 1.355.264 3.115-.423 4.3-.696 1.204-2.54 1.534-3.519 2.522-.978.978-1.317 2.822-2.521 3.518-1.186.687-2.955.066-4.3.424-1.308.348-2.522 1.787-3.933 1.787s-2.625-1.43-3.933-1.787c-1.354-.358-3.114.263-4.3-.424-1.204-.696-1.533-2.54-2.52-3.518-.98-.979-2.823-1.318-3.52-2.522-.686-1.185-.066-2.954-.423-4.3-.348-1.307-1.788-2.521-1.788-3.932 0-1.412 1.43-2.625 1.788-3.933.357-1.355-.263-3.114.423-4.3.697-1.204 2.54-1.534 3.52-2.521.978-.979 1.316-2.823 2.52-3.52 1.186-.686 2.955-.065 4.3-.423 1.308-.348 2.522-1.787 3.943-1.787 1.41 0 2.625 1.43 3.932 1.787 1.355.358 3.115-.263 4.3.424 1.204.696 1.534 2.54 2.522 3.519.978.978 2.822 1.317 3.518 2.521.687 1.186.066 2.954.424 4.3.348 1.308 1.778 2.521 1.778 3.933z"/>
        <path fill="#EC9922" d="M17.481 34.962c-1.11 0-2.023-.583-2.841-1.1-.49-.31-.95-.603-1.355-.715-.433-.113-.997-.095-1.59-.066-.95.037-2.023.084-2.954-.452-.932-.546-1.43-1.496-1.873-2.343-.273-.527-.536-1.025-.846-1.336-.311-.31-.8-.564-1.327-.837-.847-.442-1.807-.941-2.352-1.882-.537-.922-.499-2.004-.452-2.954.028-.593.047-1.157-.066-1.59-.103-.405-.404-.866-.715-1.346-.517-.809-1.1-1.73-1.1-2.841 0-1.11.583-2.023 1.1-2.841.31-.49.602-.95.715-1.355.113-.433.094-.998.066-1.59-.038-.95-.085-2.023.452-2.955.545-.931 1.496-1.43 2.342-1.872.527-.273 1.026-.536 1.337-.847.31-.31.564-.8.837-1.326.442-.847.94-1.807 1.882-2.352.922-.537 2.004-.5 2.954-.452.593.028 1.157.047 1.59-.066.405-.103.856-.404 1.345-.706.819-.517 1.741-1.11 2.851-1.11 1.11 0 2.023.584 2.842 1.101.489.31.95.602 1.354.715.433.113.998.094 1.59.066.95-.038 2.023-.085 2.955.452.94.545 1.44 1.496 1.872 2.342.273.527.536 1.026.847 1.336.31.31.8.565 1.326.838.847.442 1.807.94 2.353 1.881.536.922.498 2.004.451 2.955-.028.592-.047 1.157.066 1.59.104.404.395.865.706 1.355.517.809 1.1 1.73 1.1 2.832 0 1.11-.583 2.022-1.1 2.841-.31.49-.602.95-.715 1.355-.113.433-.094.997-.066 1.59.037.95.085 2.023-.452 2.954-.545.932-1.496 1.43-2.343 1.872-.526.273-1.025.537-1.336.847-.31.31-.564.8-.837 1.327-.442.847-.94 1.806-1.882 2.352-.922.536-2.004.499-2.954.452-.593-.029-1.157-.047-1.59.066-.405.103-.866.404-1.345.715-.819.517-1.732 1.1-2.842 1.1zm-5.062-3.876c.461 0 .922.028 1.383.15.697.189 1.318.574 1.91.96.64.405 1.242.79 1.779.79.536 0 1.138-.385 1.778-.79.593-.376 1.204-.771 1.9-.96.725-.188 1.468-.16 2.183-.131.743.028 1.45.056 1.882-.188.442-.254.771-.885 1.12-1.553.329-.63.668-1.289 1.194-1.806.527-.527 1.186-.875 1.816-1.205.668-.348 1.29-.677 1.543-1.11.254-.433.217-1.138.188-1.881-.028-.715-.056-1.459.132-2.183.188-.696.574-1.317.96-1.91.404-.64.79-1.242.79-1.778 0-.527-.386-1.13-.79-1.77-.377-.592-.772-1.213-.95-1.919-.189-.715-.16-1.458-.132-2.173.028-.743.056-1.449-.188-1.882-.254-.442-.885-.771-1.553-1.12-.63-.329-1.289-.667-1.806-1.194-.527-.527-.875-1.186-1.205-1.816-.348-.668-.677-1.289-1.11-1.543-.433-.254-1.138-.216-1.881-.188-.715.028-1.459.056-2.183-.132-.696-.188-1.317-.574-1.91-.96-.64-.404-1.242-.79-1.778-.79-.537 0-1.148.386-1.788.8-.593.376-1.204.762-1.9.95-.725.188-1.468.16-2.183.132-.744-.028-1.45-.057-1.882.188-.442.254-.772.884-1.12 1.552-.329.63-.668 1.29-1.195 1.807-.526.527-1.185.875-1.815 1.204-.668.348-1.29.678-1.543 1.11-.255.433-.217 1.139-.189 1.882.029.715.057 1.458-.131 2.183-.189.696-.574 1.317-.96 1.91-.405.64-.79 1.251-.79 1.778 0 .527.385 1.138.79 1.778.376.593.771 1.205.96 1.9.188.725.16 1.469.131 2.184-.028.743-.056 1.448.189 1.881.254.442.884.772 1.552 1.12.63.33 1.289.668 1.806 1.195.527.527.875 1.185 1.205 1.816.348.668.677 1.289 1.11 1.543.433.254 1.138.216 1.882.188.263-.01.527-.019.8-.019z"/>
        <path fill="#FFDB70" d="M17.481 29.26c-6.492 0-11.77-5.277-11.77-11.77 0-6.491 5.278-11.77 11.77-11.77S29.251 11 29.251 17.49c0 6.493-5.278 11.77-11.77 11.77z"/>
        <path fill="#FCEF92" d="M29.26 17.49c0-6.256-4.92-11.384-11.092-11.732h-1.091c-.725 0-1.374.546-1.412 1.27a1.349 1.349 0 0 0 1.346 1.412h6.473c.762 0 1.383.63 1.345 1.41-.037.725-.687 1.271-1.411 1.271h-2.53a1.345 1.345 0 1 0 .038 2.69h3.81c.61 0 1.128.509 1.119 1.13v.094a1.059 1.059 0 0 1-1.054 1.129H16.4c-.734 0-1.383.546-1.42 1.27a1.349 1.349 0 0 0 1.345 1.411h7.95c.612 0 1.13.508 1.13 1.13l-.01.075v.019c.01.649-.527 1.185-1.176 1.185h-5.523c-.734 0-1.383.546-1.42 1.28a1.354 1.354 0 0 0 1.345 1.41h5.842c.64 0 1.13.547 1.12 1.186v.038c.01.64-.47 1.185-1.12 1.185h-6.125c-.724 0-1.373.546-1.41 1.27a1.349 1.349 0 0 0 1.345 1.412h1.627c5.335-1.138 9.362-5.88 9.362-11.544z" opacity=".6"/>
        <path fill="#FFF" d="M25.243 15.026h-5.41L18.16 9.888c-.207-.658-1.148-.658-1.365 0l-1.674 5.138H9.71c-.697 0-.988.893-.424 1.298l4.375 3.18-1.674 5.137c-.207.659.545 1.214 1.1.8l4.366-3.17 4.375 3.18c.564.404 1.317-.142 1.1-.8l-1.674-5.138 4.375-3.18c.593-.414.31-1.307-.386-1.307z"/>
    </g>
</svg>
