<svg xmlns="http://www.w3.org/2000/svg" width="62" height="62" viewBox="0 0 62 62">
    <g fill="none" fill-rule="nonzero">
        <g fill="#78B9EB" transform="translate(1 4)">
            <ellipse cx="49.145" cy="26.941" rx="9.811" ry="9.926"/>
            <path d="M33.353 37.764l-3.831 1.938-3.83-1.938a8.34 8.34 0 0 0-3.761-.898H5.806a.113.113 0 0 1-.112-.113V0H.088v41.12h25.229l1.402 2.836h5.606l1.402-2.836h2.803V36.9a8.334 8.334 0 0 0-3.177.864zM53.35 0h5.606v11.343H53.35z"/>
        </g>
        <g fill="#1E81CE">
            <path d="M7.148 42.213H23.33a7.07 7.07 0 0 1 3.145.743l3.852 1.93c.02.01.044 0 .065.014.354.178.771.178 1.126 0 .02-.008.044 0 .064-.014l3.847-1.923a7.068 7.068 0 0 1 3.148-.75v-2.814a9.901 9.901 0 0 0-4.404 1.04l-1.81.904V5.091l3.07-1.534a7.07 7.07 0 0 1 3.144-.743H53.47v14.071h2.814V1.52C56.283.68 55.604 0 54.764 0H38.582a9.901 9.901 0 0 0-4.404 1.04l-3.222 1.608-3.217-1.608A9.901 9.901 0 0 0 23.335 0H7.148C6.31 0 5.63.68 5.628 1.52v39.173c.001.84.681 1.519 1.52 1.52zM8.443 2.814h14.892a7.07 7.07 0 0 1 3.145.743l3.069 1.534v36.252l-1.81-.905a9.902 9.902 0 0 0-4.404-1.04H8.443V2.814z"/>
            <path d="M33.141 45.953l-.24.481h-3.89l-.24-.481a4.2 4.2 0 0 0-3.776-2.333H2.815V5.628H4.22V2.814H1.407C.63 2.814 0 3.444 0 4.221v40.806c0 .777.63 1.407 1.407 1.407h23.589c.533-.002 1.021.3 1.258.778l.629 1.258c.238.477.726.779 1.259.778h5.628c.534 0 1.021-.3 1.26-.778l.629-1.258c.236-.478.724-.78 1.258-.778h6.703V43.62h-6.703a4.2 4.2 0 0 0-3.776 2.333zM60.505 2.814h-2.814v2.814h1.407V19.7h2.814V4.221c0-.777-.63-1.407-1.407-1.407zM11.257 5.628h14.07v2.815h-14.07z"/>
            <path d="M11.257 11.257h14.07v2.814h-14.07zM11.257 16.885h14.07V19.7h-14.07zM11.257 22.514h14.07v2.814h-14.07zM11.257 28.142h14.07v2.814h-14.07zM11.257 33.77h14.07v2.814h-14.07zM36.584 5.628h14.071v2.815h-14.07zM36.584 11.257h14.071v2.814h-14.07zM50.655 19.7a11.257 11.257 0 1 0-1.407 22.416v3.17a4.221 4.221 0 0 0-2.814 3.962v8.443a4.221 4.221 0 0 0 8.443 0v-8.443a4.221 4.221 0 0 0-2.814-3.962v-3.17c6.163-.814 10.5-6.47 9.686-12.634a11.257 11.257 0 0 0-11.094-9.783zm1.407 37.99a1.407 1.407 0 0 1-2.814 0v-8.442a1.407 1.407 0 0 1 2.814 0v8.443zM50.655 39.4a8.443 8.443 0 1 1 8.443-8.443 8.451 8.451 0 0 1-8.443 8.443z"/>
            <path d="M45.027 30.956h2.814a2.814 2.814 0 0 1 2.814-2.814v-2.814a5.628 5.628 0 0 0-5.628 5.628z"/>
        </g>
    </g>
</svg>
