<svg xmlns="http://www.w3.org/2000/svg" width="36" height="36" viewBox="0 0 36 36">
    <g fill="none" fill-rule="nonzero">
        <circle cx="18" cy="18" r="16.988" fill="#ED6362"/>
        <path fill="#BC5151" d="M18 35.964c-4.8 0-9.31-1.865-12.701-5.263A17.818 17.818 0 0 1 .036 18c0-4.8 1.865-9.31 5.263-12.701A17.818 17.818 0 0 1 18 .036c4.8 0 9.31 1.865 12.701 5.263A17.848 17.848 0 0 1 35.964 18c0 4.8-1.865 9.31-5.263 12.701A17.818 17.818 0 0 1 18 35.964zm0-33.976c-4.28 0-8.299 1.663-11.32 4.692C3.658 9.708 1.988 13.72 1.988 18s1.663 8.299 4.692 11.32A15.92 15.92 0 0 0 18 34.012c4.28 0 8.299-1.663 11.32-4.692A15.92 15.92 0 0 0 34.012 18c0-4.28-1.663-8.299-4.692-11.32A15.877 15.877 0 0 0 18 1.988z"/>
        <path fill="#FFF" d="M26.978 22.908a10.217 10.217 0 0 0-1.742-12.144A10.272 10.272 0 0 0 18 7.757c-1.677 0-3.369.419-4.908 1.265l13.886 13.886zM9.022 13.092a10.217 10.217 0 0 0 1.742 12.144A10.272 10.272 0 0 0 18 28.243c1.677 0 3.369-.419 4.908-1.265L9.022 13.092z"/>
    </g>
</svg>
