<svg xmlns="http://www.w3.org/2000/svg" width="512" height="447" viewBox="0 0 512 447">
    <g fill="none" fill-rule="nonzero">
        <path fill="#FFA227" d="M264.01 5.145l246.827 428.728c3.31 5.749-.845 12.926-7.479 12.918l-494.702-.564c-6.634-.008-10.771-7.194-7.447-12.935L249.084 5.128c3.323-5.741 11.616-5.732 14.926.017z"/>
        <path fill="#F78B0B" d="M8.656 446.228l494.703.563c6.634.008 10.789-7.169 7.479-12.918l-8.96-15.562-491.672-.56-8.997 15.542c-3.324 5.74.813 12.927 7.447 12.935z"/>
        <path fill="#FFCC5A" d="M263.923 77.057l184.685 320.788c3.31 5.749-.845 12.926-7.479 12.918l-370.154-.422c-6.634-.008-10.771-7.194-7.447-12.935L248.996 77.039c3.325-5.741 11.617-5.731 14.927.018z"/>
        <path fill="#FFB000" d="M70.975 410.343l370.154.422c6.634.008 10.789-7.169 7.479-12.918l-9.915-17.222-365.487.067-9.677 16.716c-3.325 5.741.812 12.927 7.446 12.935z"/>
        <g fill="#FFF">
            <path d="M256.199 344.521c13.023 0 21.339 9.404 21.339 22.427 0 12.647-8.316 22.417-21.339 22.417h-.366c-12.291 0-20.973-9.77-20.973-22.417 0-13.024 9.038-22.427 21.339-22.427zM269.536 147.091a3.906 3.906 0 0 1 3.902 4.006l-4.822 165.797a3.9 3.9 0 0 1-3.902 3.787h-17.03a3.9 3.9 0 0 1-3.902-3.787l-4.822-165.797a3.905 3.905 0 0 1 3.902-4.006h26.674z"/>
        </g>
    </g>
</svg>
