<?xml version="1.0" encoding="utf-8"?>
<!-- Generator: Adobe Illustrator 19.0.0, SVG Export Plug-In . SVG Version: 6.00 Build 0)  -->
<svg version="1.1" id="Layer_1" xmlns="http://www.w3.org/2000/svg" xmlns:xlink="http://www.w3.org/1999/xlink" x="0px" y="0px"
	 viewBox="0 0 183 125.2" style="enable-background:new 0 0 183 125.2;" xml:space="preserve">
<style type="text/css">
	.st0{fill:#008EAF;}
</style>
<g id="XMLID_80_">
	<path id="XMLID_81_" class="st0" d="M182.8,125c-8.3,0-15.4-1.7-22.9-5.1c-11.1-5.1-22.7-8.1-35-8.1c-12.7,0-24.3,4.2-33.3,13.2
		c-9-9-20.7-13.2-33.3-13.2c-12.3,0-23.9,3-35,8.1c-7.2,3.2-14.5,5.1-22.5,5.1H0.3L14.1,11.6C26.8,4.4,42.3,0.3,57,0.3
		c12,0,24.4,2.5,34.5,9.4c10.1-7,22.5-9.4,34.5-9.4c14.7,0,30.2,4.1,43,11.3L182.8,125z M168.7,110.5l-11.1-91
		c-10-4.5-21.8-7-32.8-7c-12.5,0-24.2,3.9-33.3,12.6c-9.2-8.6-20.9-12.6-33.3-12.6c-11,0-22.8,2.4-32.8,7l-11.1,91
		c15.3-6.3,26.9-10.9,43.9-10.9c12.2,0,23,3.1,33.3,9.6c10.3-6.5,21.1-9.6,33.3-9.6C141.8,99.6,153.4,104.1,168.7,110.5z
		 M123.5,15.7c-12.8,0.3-23,4.6-32,13.8c-9.4-9.5-20-13.8-33.3-13.8c-10,0-20.7,2.1-30,5.9l-10.2,83.9c13.5-5.5,25.3-9,40.1-9
		c11.8,0,23.3,2.9,33.3,9.1c10.1-6.2,21.6-9.4,33.3-9.1l3.6,0.1L123.5,15.7z"/>
</g>
</svg>
