<?xml version="1.0" encoding="utf-8"?>
<!-- Generator: Adobe Illustrator 19.0.0, SVG Export Plug-In . SVG Version: 6.00 Build 0)  -->
<svg version="1.1" id="Layer_1" xmlns="http://www.w3.org/2000/svg" xmlns:xlink="http://www.w3.org/1999/xlink" x="0px" y="0px"
	 viewBox="0 0 53.2 57.7" style="enable-background:new 0 0 53.2 57.7;" xml:space="preserve">
<style type="text/css">
	.st0{fill:#008EAF;}
</style>
<g id="XMLID_2_">
	<g id="XMLID_3_">
		<path id="XMLID_8_" class="st0" d="M34.7,43.6H19.3c-3.2,0-5.2-2-5.2-5.1c0-6.8,2.4-10.6,6.6-10.6c0.3,0,0.6,0.2,1.2,0.6
			c1.1,0.7,2.8,1.9,5.2,1.9s4.1-1.2,5.2-1.9c0.5-0.4,0.9-0.6,1.2-0.6c4.2,0,6.6,3.9,6.6,10.6C40,41.6,37.9,43.6,34.7,43.6z
			 M20.6,28.9c-4.9,0-5.6,6.1-5.6,9.7c0,2.5,1.6,4.1,4.2,4.1h15.5c2.6,0,4.2-1.6,4.2-4.1c0-3.6-0.7-9.6-5.6-9.7
			c-0.1,0-0.4,0.2-0.7,0.4c-1.1,0.7-3.1,2.1-5.7,2.1s-4.6-1.3-5.7-2.1C21,29.1,20.7,28.9,20.6,28.9z M27,30c-4,0-7.3-3.3-7.3-7.3
			s3.3-7.3,7.3-7.3s7.3,3.3,7.3,7.3S31,30,27,30z M27,16.4c-3.5,0-6.3,2.8-6.3,6.3S23.5,29,27,29s6.3-2.8,6.3-6.3S30.5,16.4,27,16.4
			z"/>
	</g>
</g>
<g id="XMLID_73_">
	<path id="XMLID_75_" class="st0" d="M27,53.7c-13.3,0-24.2-10.8-24.2-24.2S13.7,5.4,27,5.4s24.2,10.8,24.2,24.2S40.3,53.7,27,53.7z
		 M27,6.4C14.2,6.4,3.8,16.8,3.8,29.5S14.2,52.7,27,52.7c12.8,0,23.2-10.4,23.2-23.2S39.8,6.4,27,6.4z"/>
</g>
</svg>
