<?xml version="1.0" encoding="utf-8"?>
<!-- Generator: Adobe Illustrator 19.0.0, SVG Export Plug-In . SVG Version: 6.00 Build 0)  -->
<svg version="1.1" id="Layer_1" xmlns="http://www.w3.org/2000/svg" xmlns:xlink="http://www.w3.org/1999/xlink" x="0px" y="0px"
	 viewBox="0 0 224.7 53.3" style="enable-background:new 0 0 224.7 53.3;" xml:space="preserve">
<style type="text/css">
	.st0{fill:#878787;}
</style>
<rect id="XMLID_3_" x="4.8" y="34.2" class="st0" width="213.8" height="1.8"/>
<g id="XMLID_8_">
	<path id="XMLID_9_" class="st0" d="M22,30.8c-0.4,0.6-0.8,1.1-1.1,1.6c-0.3,0.5-0.7,1-0.9,1.4c0.8-0.8,1.7-1.5,2.8-1.9
		c1.1-0.5,2.3-0.7,3.6-0.7c1.2,0,2.4,0.2,3.4,0.6c1,0.4,1.9,1,2.7,1.7c0.7,0.7,1.3,1.6,1.8,2.7c0.4,1,0.6,2.2,0.6,3.5
		s-0.2,2.5-0.7,3.6c-0.5,1.1-1.1,2-1.9,2.8c-0.8,0.8-1.8,1.4-3,1.9c-1.2,0.4-2.4,0.7-3.8,0.7c-1.3,0-2.5-0.2-3.6-0.6s-2-1-2.8-1.9
		c-0.8-0.8-1.4-1.8-1.8-3s-0.6-2.5-0.6-3.9c0-1.1,0.3-2.4,0.8-3.8s1.5-3,2.8-4.7l7.8-10.5c0.2-0.3,0.6-0.5,1-0.5h1.7L22,30.8z
		 M25.3,46.9c1.2,0,2.2-0.2,3.1-0.5c0.9-0.4,1.7-0.9,2.4-1.5c0.7-0.6,1.2-1.4,1.5-2.3s0.5-1.8,0.5-2.9c0-1.1-0.2-2.1-0.5-3
		c-0.3-0.9-0.8-1.6-1.5-2.2s-1.4-1.1-2.2-1.4c-0.9-0.3-1.8-0.5-2.9-0.5c-1.2,0-2.2,0.2-3.2,0.6c-0.9,0.4-1.7,0.9-2.4,1.6
		c-0.6,0.7-1.1,1.4-1.5,2.2c-0.3,0.8-0.5,1.7-0.5,2.5c0,1.1,0.2,2,0.5,2.9c0.3,0.9,0.8,1.7,1.4,2.3s1.3,1.2,2.2,1.5
		C23.2,46.7,24.2,46.9,25.3,46.9z"/>
	<path id="XMLID_12_" class="st0" d="M39.8,46.6c0-0.3,0-0.5,0.1-0.7c0.1-0.2,0.2-0.4,0.4-0.6c0.2-0.2,0.4-0.3,0.6-0.4
		c0.2-0.1,0.5-0.2,0.7-0.2c0.3,0,0.5,0.1,0.7,0.2c0.2,0.1,0.4,0.2,0.6,0.4s0.3,0.4,0.4,0.6c0.1,0.2,0.2,0.5,0.2,0.7
		c0,0.3-0.1,0.5-0.2,0.7c-0.1,0.2-0.2,0.4-0.4,0.6s-0.4,0.3-0.6,0.4c-0.2,0.1-0.5,0.1-0.7,0.1c-0.5,0-1-0.2-1.3-0.5
		C40,47.6,39.8,47.2,39.8,46.6z"/>
	<path id="XMLID_14_" class="st0" d="M52.6,31c0.9-0.2,1.7-0.4,2.5-0.5c0.8-0.1,1.6-0.2,2.3-0.2c1.5,0,2.8,0.2,3.9,0.6
		s2.1,1,2.8,1.8c0.8,0.8,1.3,1.7,1.7,2.7s0.6,2.2,0.6,3.4c0,1.5-0.3,2.9-0.8,4c-0.5,1.2-1.2,2.2-2.1,3c-0.9,0.8-1.9,1.5-3.1,1.9
		c-1.2,0.4-2.5,0.7-3.8,0.7c-0.8,0-1.5-0.1-2.2-0.2s-1.4-0.3-2-0.6c-0.6-0.2-1.2-0.5-1.7-0.8c-0.5-0.3-1-0.6-1.4-0.9l0.6-0.8
		c0.1-0.2,0.3-0.3,0.6-0.3c0.2,0,0.4,0.1,0.8,0.3c0.3,0.2,0.8,0.4,1.3,0.7c0.5,0.2,1.1,0.5,1.8,0.7c0.7,0.2,1.5,0.3,2.5,0.3
		c1.1,0,2.1-0.2,3.1-0.5c1-0.4,1.8-0.9,2.5-1.5c0.7-0.7,1.2-1.5,1.6-2.5c0.4-1,0.6-2.1,0.6-3.4c0-1-0.2-2-0.5-2.8
		c-0.3-0.9-0.8-1.6-1.4-2.2c-0.6-0.6-1.4-1.1-2.3-1.4c-0.9-0.3-2-0.5-3.3-0.5c-0.8,0-1.6,0.1-2.4,0.2c-0.9,0.1-1.8,0.3-2.7,0.6
		l-1.2-0.4l2.2-12.6h12.8v0.8c0,0.3-0.1,0.5-0.3,0.7c-0.2,0.2-0.5,0.3-0.9,0.3H54.3L52.6,31z"/>
	<path id="XMLID_16_" class="st0" d="M91.6,33.9c0,2.5-0.3,4.7-0.8,6.5c-0.5,1.8-1.3,3.3-2.2,4.5c-0.9,1.2-2,2.1-3.3,2.7
		c-1.2,0.6-2.6,0.9-4,0.9c-1.4,0-2.7-0.3-4-0.9c-1.2-0.6-2.3-1.5-3.2-2.7c-0.9-1.2-1.7-2.7-2.2-4.5c-0.5-1.8-0.8-4-0.8-6.5
		c0-2.5,0.3-4.7,0.8-6.5c0.5-1.8,1.3-3.3,2.2-4.5c0.9-1.2,2-2.1,3.2-2.7c1.2-0.6,2.6-0.9,4-0.9c1.4,0,2.7,0.3,4,0.9
		c1.2,0.6,2.3,1.5,3.3,2.7c0.9,1.2,1.7,2.7,2.2,4.5C91.4,29.3,91.6,31.4,91.6,33.9z M89.6,33.9c0-2.3-0.2-4.3-0.7-5.9
		c-0.4-1.6-1-3-1.8-4c-0.7-1-1.6-1.8-2.6-2.3c-1-0.5-2.1-0.7-3.2-0.7s-2.1,0.2-3.1,0.7s-1.9,1.2-2.6,2.3c-0.8,1-1.3,2.4-1.8,4
		c-0.4,1.6-0.7,3.6-0.7,5.9c0,2.3,0.2,4.3,0.7,5.9c0.4,1.6,1,3,1.8,4s1.6,1.8,2.6,2.3c1,0.5,2,0.7,3.1,0.7s2.2-0.2,3.2-0.7
		c1-0.5,1.9-1.2,2.6-2.3c0.7-1,1.3-2.4,1.8-4C89.4,38.2,89.6,36.2,89.6,33.9z"/>
	<path id="XMLID_19_" class="st0" d="M115,33.9c0,2.5-0.3,4.7-0.8,6.5c-0.5,1.8-1.3,3.3-2.2,4.5c-0.9,1.2-2,2.1-3.3,2.7
		c-1.2,0.6-2.6,0.9-4,0.9c-1.4,0-2.7-0.3-4-0.9c-1.2-0.6-2.3-1.5-3.2-2.7c-0.9-1.2-1.7-2.7-2.2-4.5c-0.5-1.8-0.8-4-0.8-6.5
		c0-2.5,0.3-4.7,0.8-6.5c0.5-1.8,1.3-3.3,2.2-4.5c0.9-1.2,2-2.1,3.2-2.7c1.2-0.6,2.6-0.9,4-0.9c1.4,0,2.7,0.3,4,0.9
		c1.2,0.6,2.3,1.5,3.3,2.7c0.9,1.2,1.7,2.7,2.2,4.5C114.7,29.3,115,31.4,115,33.9z M113,33.9c0-2.3-0.2-4.3-0.7-5.9
		c-0.4-1.6-1-3-1.8-4c-0.7-1-1.6-1.8-2.6-2.3c-1-0.5-2.1-0.7-3.2-0.7s-2.1,0.2-3.1,0.7S99.8,22.9,99,24c-0.8,1-1.3,2.4-1.8,4
		c-0.4,1.6-0.7,3.6-0.7,5.9c0,2.3,0.2,4.3,0.7,5.9c0.4,1.6,1,3,1.8,4s1.6,1.8,2.6,2.3c1,0.5,2,0.7,3.1,0.7s2.2-0.2,3.2-0.7
		c1-0.5,1.9-1.2,2.6-2.3c0.7-1,1.3-2.4,1.8-4C112.8,38.2,113,36.2,113,33.9z"/>
	<path id="XMLID_22_" class="st0" d="M119.3,46.6c0-0.3,0-0.5,0.1-0.7c0.1-0.2,0.2-0.4,0.4-0.6c0.2-0.2,0.4-0.3,0.6-0.4
		c0.2-0.1,0.5-0.2,0.7-0.2c0.3,0,0.5,0.1,0.7,0.2c0.2,0.1,0.4,0.2,0.6,0.4s0.3,0.4,0.4,0.6c0.1,0.2,0.2,0.5,0.2,0.7
		c0,0.3-0.1,0.5-0.2,0.7c-0.1,0.2-0.2,0.4-0.4,0.6s-0.4,0.3-0.6,0.4c-0.2,0.1-0.5,0.1-0.7,0.1c-0.5,0-1-0.2-1.3-0.5
		C119.5,47.6,119.3,47.2,119.3,46.6z"/>
	<path id="XMLID_24_" class="st0" d="M147.8,33.9c0,2.5-0.3,4.7-0.8,6.5c-0.5,1.8-1.3,3.3-2.2,4.5c-0.9,1.2-2,2.1-3.3,2.7
		c-1.2,0.6-2.6,0.9-4,0.9c-1.4,0-2.7-0.3-4-0.9c-1.2-0.6-2.3-1.5-3.2-2.7c-0.9-1.2-1.7-2.7-2.2-4.5c-0.5-1.8-0.8-4-0.8-6.5
		c0-2.5,0.3-4.7,0.8-6.5c0.5-1.8,1.3-3.3,2.2-4.5c0.9-1.2,2-2.1,3.2-2.7c1.2-0.6,2.6-0.9,4-0.9c1.4,0,2.7,0.3,4,0.9
		c1.2,0.6,2.3,1.5,3.3,2.7c0.9,1.2,1.7,2.7,2.2,4.5C147.5,29.3,147.8,31.4,147.8,33.9z M145.8,33.9c0-2.3-0.2-4.3-0.7-5.9
		c-0.4-1.6-1-3-1.8-4c-0.7-1-1.6-1.8-2.6-2.3c-1-0.5-2.1-0.7-3.2-0.7s-2.1,0.2-3.1,0.7s-1.9,1.2-2.6,2.3c-0.8,1-1.3,2.4-1.8,4
		c-0.4,1.6-0.7,3.6-0.7,5.9c0,2.3,0.2,4.3,0.7,5.9c0.4,1.6,1,3,1.8,4s1.6,1.8,2.6,2.3c1,0.5,2,0.7,3.1,0.7s2.2-0.2,3.2-0.7
		c1-0.5,1.9-1.2,2.6-2.3c0.7-1,1.3-2.4,1.8-4C145.5,38.2,145.8,36.2,145.8,33.9z"/>
	<path id="XMLID_27_" class="st0" d="M171.1,33.9c0,2.5-0.3,4.7-0.8,6.5c-0.5,1.8-1.3,3.3-2.2,4.5c-0.9,1.2-2,2.1-3.3,2.7
		c-1.2,0.6-2.6,0.9-4,0.9c-1.4,0-2.7-0.3-4-0.9c-1.2-0.6-2.3-1.5-3.2-2.7c-0.9-1.2-1.7-2.7-2.2-4.5c-0.5-1.8-0.8-4-0.8-6.5
		c0-2.5,0.3-4.7,0.8-6.5c0.5-1.8,1.3-3.3,2.2-4.5c0.9-1.2,2-2.1,3.2-2.7c1.2-0.6,2.6-0.9,4-0.9c1.4,0,2.7,0.3,4,0.9
		c1.2,0.6,2.3,1.5,3.3,2.7c0.9,1.2,1.7,2.7,2.2,4.5C170.9,29.3,171.1,31.4,171.1,33.9z M169.1,33.9c0-2.3-0.2-4.3-0.7-5.9
		c-0.4-1.6-1-3-1.8-4c-0.7-1-1.6-1.8-2.6-2.3c-1-0.5-2.1-0.7-3.2-0.7s-2.1,0.2-3.1,0.7s-1.9,1.2-2.6,2.3c-0.8,1-1.3,2.4-1.8,4
		c-0.4,1.6-0.7,3.6-0.7,5.9c0,2.3,0.2,4.3,0.7,5.9c0.4,1.6,1,3,1.8,4s1.6,1.8,2.6,2.3c1,0.5,2,0.7,3.1,0.7s2.2-0.2,3.2-0.7
		c1-0.5,1.9-1.2,2.6-2.3c0.7-1,1.3-2.4,1.8-4C168.9,38.2,169.1,36.2,169.1,33.9z"/>
	<path id="XMLID_30_" class="st0" d="M194.5,33.9c0,2.5-0.3,4.7-0.8,6.5c-0.5,1.8-1.3,3.3-2.2,4.5c-0.9,1.2-2,2.1-3.3,2.7
		c-1.2,0.6-2.6,0.9-4,0.9s-2.7-0.3-4-0.9c-1.2-0.6-2.3-1.5-3.2-2.7c-0.9-1.2-1.7-2.7-2.2-4.5c-0.5-1.8-0.8-4-0.8-6.5
		c0-2.5,0.3-4.7,0.8-6.5c0.5-1.8,1.3-3.3,2.2-4.5c0.9-1.2,2-2.1,3.2-2.7c1.2-0.6,2.6-0.9,4-0.9s2.7,0.3,4,0.9
		c1.2,0.6,2.3,1.5,3.3,2.7c0.9,1.2,1.7,2.7,2.2,4.5S194.5,31.4,194.5,33.9z M192.5,33.9c0-2.3-0.2-4.3-0.7-5.9c-0.4-1.6-1-3-1.8-4
		c-0.7-1-1.6-1.8-2.6-2.3c-1-0.5-2.1-0.7-3.2-0.7c-1.1,0-2.1,0.2-3.1,0.7c-1,0.5-1.9,1.2-2.6,2.3c-0.8,1-1.3,2.4-1.8,4
		c-0.4,1.6-0.7,3.6-0.7,5.9c0,2.3,0.2,4.3,0.7,5.9c0.4,1.6,1,3,1.8,4c0.8,1,1.6,1.8,2.6,2.3c1,0.5,2,0.7,3.1,0.7
		c1.1,0,2.2-0.2,3.2-0.7c1-0.5,1.9-1.2,2.6-2.3s1.3-2.4,1.8-4C192.3,38.2,192.5,36.2,192.5,33.9z"/>
</g>
<g id="XMLID_1_">
	<path id="XMLID_5_" class="st0" d="M210.6,14.1H209v11.9h-0.5c-0.2,0-0.3-0.1-0.3-0.3l-0.1-1.6c-0.5,0.6-1,1.1-1.6,1.5
		c-0.6,0.4-1.3,0.5-2,0.5c-0.6,0-1.2-0.1-1.7-0.3c-0.5-0.2-0.9-0.5-1.3-1s-0.6-1-0.8-1.6s-0.3-1.4-0.3-2.3c0-0.8,0.1-1.4,0.3-2.1
		c0.2-0.6,0.5-1.2,0.9-1.7c0.4-0.5,0.9-0.8,1.4-1.1c0.6-0.3,1.2-0.4,1.9-0.4c0.7,0,1.3,0.1,1.8,0.4c0.5,0.3,1,0.6,1.3,1.1v-3.1h-2.6
		v-0.7h2.6V11h1v2.4h1.6V14.1z M208,18.1c-0.4-0.6-0.8-1-1.3-1.2c-0.5-0.2-1-0.4-1.6-0.4s-1.1,0.1-1.6,0.3s-0.8,0.5-1.1,0.9
		c-0.3,0.4-0.5,0.9-0.7,1.4s-0.2,1.2-0.2,1.8c0,1.5,0.3,2.6,0.8,3.3c0.6,0.7,1.4,1.1,2.4,1.1c0.7,0,1.3-0.2,1.8-0.5s1-0.8,1.5-1.5
		V18.1z"/>
</g>
</svg>
