<?xml version="1.0" encoding="utf-8"?>
<!-- Generator: Adobe Illustrator 19.0.0, SVG Export Plug-In . SVG Version: 6.00 Build 0)  -->
<svg version="1.1" id="Layer_1" xmlns="http://www.w3.org/2000/svg" xmlns:xlink="http://www.w3.org/1999/xlink" x="0px" y="0px"
	 viewBox="-149 371 312.7 52" style="enable-background:new -149 371 312.7 52;" xml:space="preserve">
<style type="text/css">
	.st0{fill:#6796B5;}
</style>
<g id="XMLID_7_">
	<g id="XMLID_381_">
		<path id="XMLID_425_" class="st0" d="M-145.2,395c0.2-1.4,0.6-2.6,1.2-3.6s1.3-1.9,2.1-2.6c0.8-0.7,1.8-1.2,3-1.6
			c1.1-0.4,2.3-0.5,3.6-0.5s2.5,0.2,3.6,0.6c1.1,0.4,2,0.9,2.7,1.6c0.8,0.7,1.3,1.5,1.7,2.4c0.4,0.9,0.6,1.9,0.6,2.9
			c0,0.9-0.1,1.7-0.3,2.4c-0.2,0.7-0.5,1.3-0.9,1.8s-0.9,1-1.4,1.3c-0.5,0.3-1.2,0.7-1.9,0.9c1.7,0.5,3,1.4,3.9,2.5s1.3,2.5,1.3,4.2
			c0,1.4-0.3,2.7-0.8,3.8s-1.3,2-2.2,2.8c-0.9,0.8-2,1.3-3.1,1.7c-1.2,0.4-2.5,0.6-3.8,0.6c-1.5,0-2.7-0.2-3.8-0.5
			c-1.1-0.3-2-0.8-2.8-1.5c-0.8-0.7-1.5-1.5-2-2.4c-0.5-0.9-1-2-1.4-3.3l2.2-0.9c0.6-0.2,1.1-0.3,1.6-0.2s0.9,0.4,1.1,0.8
			c0.2,0.5,0.5,0.9,0.8,1.4s0.6,0.9,1,1.2c0.4,0.4,0.9,0.6,1.4,0.9c0.5,0.2,1.2,0.3,1.9,0.3c0.8,0,1.6-0.1,2.2-0.4
			c0.6-0.3,1.1-0.6,1.6-1.1c0.4-0.4,0.7-0.9,0.9-1.5s0.2-1,0.2-1.6c0-0.7-0.1-1.3-0.2-1.9c-0.1-0.6-0.5-1-0.9-1.4
			c-0.5-0.4-1.1-0.7-2-0.9c-0.9-0.2-2-0.3-3.5-0.3v-3.5c1.2,0,2.2-0.1,3-0.3c0.8-0.2,1.4-0.5,1.9-0.9c0.5-0.4,0.8-0.8,1-1.4
			c0.2-0.5,0.3-1.1,0.3-1.8c0-1.4-0.4-2.4-1.1-3.1c-0.8-0.7-1.8-1.1-3-1.1c-0.6,0-1.1,0.1-1.6,0.3c-0.5,0.2-0.9,0.4-1.3,0.7
			c-0.4,0.3-0.7,0.6-1,1c-0.3,0.4-0.5,0.8-0.6,1.3c-0.2,0.6-0.5,1-0.9,1.2c-0.4,0.2-0.9,0.2-1.5,0.1L-145.2,395z"/>
		<path id="XMLID_423_" class="st0" d="M-122.5,413.1c0-0.4,0.1-0.8,0.2-1.2c0.1-0.4,0.4-0.7,0.6-1c0.3-0.3,0.6-0.5,1-0.6
			c0.4-0.1,0.8-0.2,1.2-0.2s0.8,0.1,1.2,0.2c0.4,0.2,0.7,0.4,1,0.6c0.3,0.3,0.5,0.6,0.6,1s0.2,0.8,0.2,1.2s-0.1,0.8-0.2,1.2
			c-0.2,0.4-0.4,0.7-0.6,0.9c-0.3,0.3-0.6,0.5-1,0.6c-0.4,0.2-0.8,0.2-1.2,0.2c-0.4,0-0.8-0.1-1.2-0.2c-0.4-0.1-0.7-0.4-1-0.6
			c-0.3-0.3-0.5-0.6-0.6-0.9C-122.4,413.9-122.5,413.5-122.5,413.1z"/>
		<path id="XMLID_420_" class="st0" d="M-92.5,401.4c0,2.5-0.3,4.7-0.8,6.6s-1.3,3.4-2.2,4.6c-1,1.2-2.1,2.1-3.4,2.7
			c-1.3,0.6-2.7,0.9-4.2,0.9s-2.9-0.3-4.2-0.9c-1.3-0.6-2.4-1.5-3.3-2.7c-0.9-1.2-1.7-2.7-2.2-4.6s-0.8-4-0.8-6.6
			c0-2.5,0.3-4.7,0.8-6.6c0.5-1.8,1.3-3.4,2.2-4.6c0.9-1.2,2.1-2.1,3.3-2.7c1.3-0.6,2.7-0.9,4.2-0.9s2.9,0.3,4.2,0.9
			s2.4,1.5,3.4,2.7c1,1.2,1.7,2.7,2.2,4.6C-92.8,396.7-92.5,398.9-92.5,401.4z M-97.6,401.4c0-2.1-0.2-3.8-0.5-5.2
			c-0.3-1.4-0.7-2.5-1.2-3.3c-0.5-0.8-1.1-1.4-1.8-1.7c-0.7-0.3-1.4-0.5-2.1-0.5s-1.4,0.2-2,0.5c-0.7,0.3-1.2,0.9-1.7,1.7
			c-0.5,0.8-0.9,1.9-1.2,3.3c-0.3,1.4-0.4,3.1-0.4,5.2s0.1,3.8,0.4,5.2c0.3,1.4,0.7,2.5,1.2,3.3c0.5,0.8,1.1,1.4,1.7,1.7
			c0.7,0.3,1.3,0.5,2,0.5s1.4-0.2,2.1-0.5c0.7-0.3,1.3-0.9,1.8-1.7c0.5-0.8,0.9-1.9,1.2-3.3S-97.6,403.5-97.6,401.4z"/>
		<path id="XMLID_417_" class="st0" d="M-69.4,401.4c0,2.5-0.3,4.7-0.8,6.6s-1.3,3.4-2.2,4.6c-1,1.2-2.1,2.1-3.4,2.7
			c-1.3,0.6-2.7,0.9-4.2,0.9s-2.9-0.3-4.2-0.9c-1.3-0.6-2.4-1.5-3.3-2.7c-0.9-1.2-1.7-2.7-2.2-4.6s-0.8-4-0.8-6.6
			c0-2.5,0.3-4.7,0.8-6.6c0.5-1.8,1.3-3.4,2.2-4.6c0.9-1.2,2.1-2.1,3.3-2.7c1.3-0.6,2.7-0.9,4.2-0.9s2.9,0.3,4.2,0.9
			c1.3,0.6,2.4,1.5,3.4,2.7c1,1.2,1.7,2.7,2.2,4.6C-69.6,396.7-69.4,398.9-69.4,401.4z M-74.5,401.4c0-2.1-0.2-3.8-0.5-5.2
			c-0.3-1.4-0.7-2.5-1.2-3.3c-0.5-0.8-1.1-1.4-1.8-1.7c-0.7-0.3-1.4-0.5-2.1-0.5s-1.4,0.2-2,0.5c-0.7,0.3-1.2,0.9-1.7,1.7
			c-0.5,0.8-0.9,1.9-1.2,3.3c-0.3,1.4-0.4,3.1-0.4,5.2s0.1,3.8,0.4,5.2s0.7,2.5,1.2,3.3c0.5,0.8,1.1,1.4,1.7,1.7
			c0.7,0.3,1.3,0.5,2,0.5s1.4-0.2,2.1-0.5c0.7-0.3,1.3-0.9,1.8-1.7c0.5-0.8,0.9-1.9,1.2-3.3S-74.5,403.5-74.5,401.4z"/>
		<path id="XMLID_414_" class="st0" d="M-46.2,401.4c0,2.5-0.3,4.7-0.8,6.6s-1.3,3.4-2.2,4.6c-1,1.2-2.1,2.1-3.4,2.7
			c-1.3,0.6-2.7,0.9-4.2,0.9s-2.9-0.3-4.2-0.9c-1.3-0.6-2.4-1.5-3.3-2.7c-0.9-1.2-1.7-2.7-2.2-4.6s-0.8-4-0.8-6.6
			c0-2.5,0.3-4.7,0.8-6.6c0.5-1.8,1.3-3.4,2.2-4.6c0.9-1.2,2.1-2.1,3.3-2.7c1.3-0.6,2.7-0.9,4.2-0.9s2.9,0.3,4.2,0.9
			c1.3,0.6,2.4,1.5,3.4,2.7c1,1.2,1.7,2.7,2.2,4.6C-46.5,396.7-46.2,398.9-46.2,401.4z M-51.3,401.4c0-2.1-0.2-3.8-0.5-5.2
			c-0.3-1.4-0.7-2.5-1.2-3.3c-0.5-0.8-1.1-1.4-1.8-1.7c-0.7-0.3-1.4-0.5-2.1-0.5s-1.4,0.2-2,0.5c-0.7,0.3-1.2,0.9-1.7,1.7
			c-0.5,0.8-0.9,1.9-1.2,3.3c-0.3,1.4-0.4,3.1-0.4,5.2s0.1,3.8,0.4,5.2s0.7,2.5,1.2,3.3c0.5,0.8,1.1,1.4,1.7,1.7
			c0.7,0.3,1.3,0.5,2,0.5s1.4-0.2,2.1-0.5c0.7-0.3,1.3-0.9,1.8-1.7c0.5-0.8,0.9-1.9,1.2-3.3S-51.3,403.5-51.3,401.4z"/>
		<path id="XMLID_412_" class="st0" d="M-43.5,413.1c0-0.4,0.1-0.8,0.2-1.2s0.4-0.7,0.6-1c0.3-0.3,0.6-0.5,1-0.6
			c0.4-0.1,0.8-0.2,1.2-0.2c0.4,0,0.8,0.1,1.2,0.2c0.4,0.2,0.7,0.4,1,0.6c0.3,0.3,0.5,0.6,0.6,1s0.2,0.8,0.2,1.2s-0.1,0.8-0.2,1.2
			c-0.2,0.4-0.4,0.7-0.6,0.9c-0.3,0.3-0.6,0.5-1,0.6c-0.4,0.2-0.8,0.2-1.2,0.2c-0.4,0-0.8-0.1-1.2-0.2c-0.4-0.1-0.7-0.4-1-0.6
			c-0.3-0.3-0.5-0.6-0.6-0.9C-43.4,413.9-43.5,413.5-43.5,413.1z"/>
		<path id="XMLID_409_" class="st0" d="M-13.6,401.4c0,2.5-0.3,4.7-0.8,6.6s-1.3,3.4-2.2,4.6c-1,1.2-2.1,2.1-3.4,2.7
			c-1.3,0.6-2.7,0.9-4.2,0.9s-2.9-0.3-4.2-0.9c-1.3-0.6-2.4-1.5-3.3-2.7c-0.9-1.2-1.7-2.7-2.2-4.6s-0.8-4-0.8-6.6
			c0-2.5,0.3-4.7,0.8-6.6c0.5-1.8,1.3-3.4,2.2-4.6c0.9-1.2,2.1-2.1,3.3-2.7c1.3-0.6,2.7-0.9,4.2-0.9s2.9,0.3,4.2,0.9
			c1.3,0.6,2.4,1.5,3.4,2.7c1,1.2,1.7,2.7,2.2,4.6C-13.9,396.7-13.6,398.9-13.6,401.4z M-18.7,401.4c0-2.1-0.2-3.8-0.5-5.2
			c-0.3-1.4-0.7-2.5-1.2-3.3c-0.5-0.8-1.1-1.4-1.8-1.7c-0.7-0.3-1.4-0.5-2.1-0.5s-1.4,0.2-2,0.5c-0.7,0.3-1.2,0.9-1.7,1.7
			c-0.5,0.8-0.9,1.9-1.2,3.3c-0.3,1.4-0.4,3.1-0.4,5.2s0.1,3.8,0.4,5.2s0.7,2.5,1.2,3.3c0.5,0.8,1.1,1.4,1.7,1.7
			c0.7,0.3,1.3,0.5,2,0.5s1.4-0.2,2.1-0.5c0.7-0.3,1.3-0.9,1.8-1.7c0.5-0.8,0.9-1.9,1.2-3.3S-18.7,403.5-18.7,401.4z"/>
		<path id="XMLID_406_" class="st0" d="M9.6,401.4c0,2.5-0.3,4.7-0.8,6.6s-1.3,3.4-2.2,4.6c-1,1.2-2.1,2.1-3.4,2.7
			c-1.3,0.6-2.7,0.9-4.2,0.9s-2.9-0.3-4.2-0.9c-1.3-0.6-2.4-1.5-3.3-2.7c-0.9-1.2-1.7-2.7-2.2-4.6s-0.8-4-0.8-6.6
			c0-2.5,0.3-4.7,0.8-6.6c0.5-1.8,1.3-3.4,2.2-4.6c0.9-1.2,2.1-2.1,3.3-2.7c1.3-0.6,2.7-0.9,4.2-0.9s2.9,0.3,4.2,0.9
			s2.4,1.5,3.4,2.7c1,1.2,1.7,2.7,2.2,4.6C9.3,396.7,9.6,398.9,9.6,401.4z M4.5,401.4c0-2.1-0.2-3.8-0.5-5.2
			c-0.3-1.4-0.7-2.5-1.2-3.3c-0.5-0.8-1.1-1.4-1.8-1.7c-0.7-0.3-1.4-0.5-2.1-0.5c-0.7,0-1.4,0.2-2,0.5c-0.7,0.3-1.2,0.9-1.7,1.7
			c-0.5,0.8-0.9,1.9-1.2,3.3c-0.3,1.4-0.4,3.1-0.4,5.2s0.1,3.8,0.4,5.2c0.3,1.4,0.7,2.5,1.2,3.3c0.5,0.8,1.1,1.4,1.7,1.7
			c0.7,0.3,1.3,0.5,2,0.5s1.4-0.2,2.1-0.5c0.7-0.3,1.3-0.9,1.8-1.7c0.5-0.8,0.9-1.9,1.2-3.3S4.5,403.5,4.5,401.4z"/>
		<path id="XMLID_403_" class="st0" d="M32.7,401.4c0,2.5-0.3,4.7-0.8,6.6s-1.3,3.4-2.2,4.6c-1,1.2-2.1,2.1-3.4,2.7
			c-1.3,0.6-2.7,0.9-4.2,0.9s-2.9-0.3-4.2-0.9c-1.3-0.6-2.4-1.5-3.3-2.7c-0.9-1.2-1.7-2.7-2.2-4.6s-0.8-4-0.8-6.6
			c0-2.5,0.3-4.7,0.8-6.6c0.5-1.8,1.3-3.4,2.2-4.6c0.9-1.2,2.1-2.1,3.3-2.7c1.3-0.6,2.7-0.9,4.2-0.9s2.9,0.3,4.2,0.9
			s2.4,1.5,3.4,2.7c1,1.2,1.7,2.7,2.2,4.6C32.5,396.7,32.7,398.9,32.7,401.4z M27.6,401.4c0-2.1-0.2-3.8-0.5-5.2
			c-0.3-1.4-0.7-2.5-1.2-3.3c-0.5-0.8-1.1-1.4-1.8-1.7c-0.7-0.3-1.4-0.5-2.1-0.5c-0.7,0-1.4,0.2-2,0.5c-0.7,0.3-1.2,0.9-1.7,1.7
			c-0.5,0.8-0.9,1.9-1.2,3.3c-0.3,1.4-0.4,3.1-0.4,5.2s0.1,3.8,0.4,5.2c0.3,1.4,0.7,2.5,1.2,3.3c0.5,0.8,1.1,1.4,1.7,1.7
			c0.7,0.3,1.3,0.5,2,0.5s1.4-0.2,2.1-0.5c0.7-0.3,1.3-0.9,1.8-1.7c0.5-0.8,0.9-1.9,1.2-3.3S27.6,403.5,27.6,401.4z"/>
		<path id="XMLID_401_" class="st0" d="M59,415.9c-0.2,0.6-0.6,1.1-1.1,1.4c-0.5,0.3-1,0.5-1.5,0.5h-2.1L66,388c0.2-0.6,0.5-1,1-1.3
			c0.4-0.3,1-0.4,1.5-0.4h2.1L59,415.9z"/>
		<path id="XMLID_399_" class="st0" d="M95.2,401.4v14.5h-2.7v-6.3h-6.8v6.3H83v-14.5h2.7v6.2h6.8v-6.2
			C92.5,401.4,95.2,401.4,95.2,401.4z"/>
		<path id="XMLID_395_" class="st0" d="M102.3,405.4c0.8,0,1.5,0.1,2.1,0.4c0.6,0.3,1.2,0.6,1.6,1c0.4,0.5,0.8,1,1,1.7
			c0.2,0.7,0.4,1.4,0.4,2.2c0,0.8-0.1,1.5-0.4,2.2c-0.2,0.7-0.6,1.2-1,1.7s-1,0.8-1.6,1.1c-0.6,0.3-1.3,0.4-2.1,0.4
			s-1.5-0.1-2.1-0.4c-0.6-0.3-1.2-0.6-1.6-1.1c-0.4-0.5-0.8-1-1-1.7c-0.2-0.7-0.4-1.4-0.4-2.2c0-0.8,0.1-1.5,0.4-2.2s0.6-1.2,1-1.7
			s1-0.8,1.6-1C100.8,405.6,101.5,405.4,102.3,405.4z M102.3,414.1c0.9,0,1.5-0.3,1.9-0.9c0.4-0.6,0.6-1.4,0.6-2.5
			c0-1.1-0.2-2-0.6-2.5s-1-0.9-1.9-0.9s-1.5,0.3-1.9,0.9c-0.4,0.6-0.6,1.4-0.6,2.5c0,1.1,0.2,1.9,0.6,2.5
			C100.8,413.8,101.4,414.1,102.3,414.1z M103.7,418.2c0,0.2,0,0.4-0.1,0.5c-0.1,0.2-0.2,0.3-0.3,0.4s-0.3,0.2-0.5,0.3
			s-0.4,0.1-0.5,0.1s-0.4,0-0.5-0.1c-0.2-0.1-0.3-0.2-0.4-0.3c-0.1-0.1-0.2-0.3-0.3-0.4c-0.1-0.2-0.1-0.3-0.1-0.5
			c0-0.2,0-0.4,0.1-0.5c0.1-0.2,0.2-0.3,0.3-0.4c0.1-0.1,0.3-0.2,0.4-0.3c0.2-0.1,0.3-0.1,0.5-0.1s0.4,0,0.5,0.1
			c0.2,0.1,0.3,0.2,0.5,0.3c0.1,0.1,0.2,0.3,0.3,0.4C103.7,417.8,103.7,418,103.7,418.2z"/>
		<path id="XMLID_393_" class="st0" d="M116.6,407.7c-0.1,0.1-0.1,0.2-0.2,0.2c-0.1,0.1-0.2,0.1-0.3,0.1c-0.1,0-0.3,0-0.4-0.1
			s-0.3-0.2-0.4-0.3s-0.4-0.2-0.6-0.3c-0.2-0.1-0.5-0.1-0.9-0.1s-0.8,0.1-1.1,0.2c-0.3,0.2-0.6,0.4-0.8,0.7s-0.4,0.6-0.5,1.1
			c-0.1,0.4-0.2,0.9-0.2,1.4s0.1,1,0.2,1.5c0.1,0.4,0.3,0.8,0.5,1.1c0.2,0.3,0.5,0.5,0.8,0.7c0.3,0.2,0.7,0.2,1.1,0.2s0.7,0,1-0.1
			c0.2-0.1,0.4-0.2,0.6-0.3s0.3-0.2,0.4-0.3c0.1-0.1,0.3-0.1,0.4-0.1c0.2,0,0.3,0.1,0.5,0.2l0.7,0.9c-0.3,0.3-0.6,0.6-0.9,0.8
			s-0.7,0.4-1,0.5s-0.7,0.2-1.1,0.3c-0.4,0.1-0.7,0.1-1.1,0.1c-0.6,0-1.2-0.1-1.8-0.4c-0.6-0.2-1-0.6-1.5-1c-0.4-0.5-0.8-1-1-1.7
			c-0.2-0.7-0.4-1.4-0.4-2.2c0-0.8,0.1-1.5,0.3-2.1c0.2-0.6,0.5-1.2,1-1.7c0.4-0.5,0.9-0.8,1.6-1.1c0.7-0.3,1.3-0.4,2.1-0.4
			c0.8,0,1.4,0.1,2,0.4c0.6,0.2,1.1,0.6,1.6,1.1L116.6,407.7z"/>
		<path id="XMLID_391_" class="st0" d="M132.5,405.6l-4.1,10.3h-2.2l-4.1-10.3h2c0.2,0,0.3,0,0.5,0.1c0.1,0.1,0.2,0.2,0.2,0.3l2,5.5
			c0.1,0.3,0.2,0.6,0.3,0.9c0.1,0.3,0.2,0.6,0.2,0.9c0.1-0.3,0.1-0.6,0.2-0.9c0.1-0.3,0.2-0.6,0.3-0.9l2-5.5c0-0.1,0.1-0.2,0.3-0.3
			c0.1-0.1,0.3-0.1,0.4-0.1H132.5z"/>
		<path id="XMLID_388_" class="st0" d="M136.7,402.6c0,0.2,0,0.4-0.1,0.6c-0.1,0.2-0.2,0.4-0.3,0.5c-0.1,0.1-0.3,0.3-0.5,0.3
			c-0.2,0.1-0.4,0.1-0.6,0.1s-0.4,0-0.6-0.1s-0.4-0.2-0.5-0.3c-0.1-0.1-0.3-0.3-0.3-0.5c-0.1-0.2-0.1-0.4-0.1-0.6
			c0-0.2,0-0.4,0.1-0.6s0.2-0.4,0.3-0.5c0.1-0.1,0.3-0.3,0.5-0.3c0.2-0.1,0.4-0.1,0.6-0.1s0.4,0,0.6,0.1c0.2,0.1,0.4,0.2,0.5,0.3
			s0.3,0.3,0.3,0.5C136.7,402.1,136.7,402.4,136.7,402.6z M136.4,405.6v10.3h-2.5v-10.3H136.4z"/>
		<path id="XMLID_384_" class="st0" d="M140.8,411c0,0.5,0.1,1,0.3,1.4c0.1,0.4,0.3,0.7,0.6,1c0.2,0.3,0.5,0.4,0.9,0.6
			c0.3,0.1,0.7,0.2,1.1,0.2s0.7,0,1-0.1s0.5-0.2,0.8-0.3c0.3-0.1,0.4-0.2,0.6-0.3s0.3-0.1,0.5-0.1s0.4,0.1,0.5,0.2l0.7,0.9
			c-0.3,0.3-0.6,0.6-0.9,0.8c-0.3,0.2-0.7,0.4-1.1,0.5c-0.4,0.1-0.7,0.2-1.1,0.3s-0.8,0.1-1.1,0.1c-0.7,0-1.4-0.1-2-0.4
			c-0.6-0.2-1.1-0.6-1.6-1c-0.5-0.4-0.8-1-1.1-1.7c-0.3-0.7-0.4-1.5-0.4-2.4c0-0.7,0.1-1.4,0.3-2c0.2-0.6,0.6-1.2,1-1.6
			c0.4-0.5,0.9-0.8,1.6-1.1c0.6-0.3,1.3-0.4,2.1-0.4c0.6,0,1.2,0.1,1.8,0.3c0.6,0.2,1,0.5,1.4,0.9c0.4,0.4,0.7,0.9,0.9,1.5
			c0.2,0.6,0.3,1.2,0.3,2c0,0.4,0,0.6-0.1,0.8c-0.1,0.1-0.2,0.2-0.5,0.2h-6.5V411z M146.8,404.1h-1.6c-0.1,0-0.2,0-0.3-0.1
			s-0.2-0.1-0.3-0.2l-1-1c-0.1-0.1-0.1-0.1-0.2-0.2c-0.1,0.1-0.1,0.2-0.2,0.2l-1,1c-0.1,0.1-0.2,0.2-0.3,0.2c-0.1,0-0.2,0.1-0.3,0.1
			h-1.7l2.3-2.8h2.3L146.8,404.1z M145.5,409.5c0-0.3,0-0.6-0.1-0.9c-0.1-0.3-0.2-0.5-0.4-0.7c-0.2-0.2-0.4-0.4-0.7-0.5
			c-0.3-0.1-0.6-0.2-1-0.2c-0.7,0-1.3,0.2-1.7,0.6s-0.7,1-0.8,1.7C140.8,409.5,145.5,409.5,145.5,409.5z"/>
		<path id="XMLID_382_" class="st0" d="M151.9,406.8c0.2-0.2,0.4-0.4,0.7-0.6c0.2-0.2,0.5-0.3,0.7-0.4c0.2-0.1,0.5-0.2,0.8-0.3
			s0.6-0.1,1-0.1c0.6,0,1.1,0.1,1.5,0.3c0.4,0.2,0.8,0.5,1.1,0.8s0.5,0.8,0.7,1.2c0.2,0.5,0.2,1,0.2,1.6v6.5h-2.5v-6.5
			c0-0.6-0.1-1.1-0.4-1.5c-0.3-0.3-0.7-0.5-1.3-0.5c-0.4,0-0.8,0.1-1.2,0.3c-0.4,0.2-0.7,0.5-1.1,0.8v7.4h-2.5v-10.2h1.5
			c0.3,0,0.5,0.1,0.6,0.4L151.9,406.8z"/>
	</g>
</g>
<g id="XMLID_3_">
	<g id="XMLID_82_">
		<path id="XMLID_83_" class="st0" d="M50.8,379.6H49v14.3h-1.9c-0.4,0-0.7-0.2-0.8-0.6L46,392c-0.5,0.6-1.1,1.1-1.8,1.5
			s-1.5,0.6-2.4,0.6c-0.7,0-1.4-0.1-1.9-0.4c-0.6-0.3-1.1-0.7-1.5-1.2s-0.8-1.2-1-2s-0.3-1.7-0.3-2.8c0-1,0.1-1.9,0.4-2.7
			c0.3-0.8,0.6-1.5,1.1-2.1s1.1-1,1.8-1.4c0.7-0.3,1.5-0.5,2.3-0.5c0.7,0,1.3,0.1,1.8,0.3c0.5,0.2,1,0.5,1.4,0.9v-2.6H43v-2h2.9
			v-2.5H49v2.5h1.8V379.6z M45.8,384.6c-0.4-0.4-0.7-0.7-1.2-0.9c-0.5-0.2-0.9-0.3-1.3-0.3c-0.5,0-0.9,0.1-1.3,0.2
			c-0.4,0.2-0.7,0.4-1,0.7c-0.3,0.3-0.5,0.8-0.6,1.3s-0.2,1.2-0.2,1.9c0,0.8,0.1,1.4,0.2,1.9c0.1,0.5,0.3,0.9,0.5,1.2
			c0.2,0.3,0.5,0.5,0.8,0.6c0.3,0.1,0.7,0.2,1.1,0.2c0.6,0,1.2-0.1,1.7-0.4s0.9-0.6,1.3-1.1V384.6z"/>
	</g>
</g>
</svg>
