<?xml version="1.0" encoding="utf-8"?>
<!-- Generator: Adobe Illustrator 19.0.0, SVG Export Plug-In . SVG Version: 6.00 Build 0)  -->
<svg version="1.1" id="Layer_1" xmlns="http://www.w3.org/2000/svg" xmlns:xlink="http://www.w3.org/1999/xlink" x="0px" y="0px"
	 viewBox="-228 376.7 154.3 41.3" style="enable-background:new -228 376.7 154.3 41.3;" xml:space="preserve">
<style type="text/css">
	.st0{fill:#61B04C;}
	.st1{fill:#FFFFFF;}
	.st2{enable-background:new    ;}
	.st3{fill:#438D47;}
</style>
<path id="XMLID_1_" class="st0" d="M-83.6,409.3h-114.5c-3.2,0-5.8-2.6-5.8-5.8v-12.4c0-3.2,2.6-5.8,5.8-5.8h114.5
	c3.2,0,5.8,2.6,5.8,5.8v12.5C-77.8,406.8-80.4,409.3-83.6,409.3z"/>
<circle id="XMLID_3_" class="st1" cx="-205.6" cy="397.3" r="17.3"/>
<g class="st2">
	<path class="st3" d="M-205.6,416c-10,0-18.2-8.2-18.2-18.2s8.2-18.2,18.2-18.2s18.2,8.2,18.2,18.2S-195.6,416-205.6,416z
		 M-195,396.3c0-0.8-0.7-1.5-1.5-1.5h-6.1v-6.1c0-0.8-0.7-1.5-1.5-1.5h-3c-0.8,0-1.5,0.7-1.5,1.5v6.1h-6.1c-0.8,0-1.5,0.7-1.5,1.5v3
		c0,0.8,0.7,1.5,1.5,1.5h6.1v6.1c0,0.8,0.7,1.5,1.5,1.5h3c0.8,0,1.5-0.7,1.5-1.5v-6.1h6.1c0.8,0,1.5-0.7,1.5-1.5V396.3z"/>
</g>
<g id="XMLID_5_">
	<path id="XMLID_6_" class="st1" d="M-172.7,393.5h-3.8v10.7h-2.3v-10.7h-3.8v-1.9h9.9C-172.7,391.6-172.7,393.5-172.7,393.5z"/>
	<path id="XMLID_8_" class="st1" d="M-159.1,391.6v12.6h-2.4v-5.5h-5.9v5.5h-2.4v-12.6h2.4v5.4h5.9v-5.4H-159.1z"/>
	<path id="XMLID_10_" class="st1" d="M-152.7,393.5v3.5h4.4v1.8h-4.4v3.6h5.6v1.9h-7.9v-12.7h7.9v1.9H-152.7z M-147.8,390.7h-1.6
		c-0.1,0-0.2,0-0.3,0c-0.1,0-0.3-0.1-0.4-0.3l-0.7-0.9c-0.1-0.1-0.1-0.1-0.1-0.2c0,0-0.1,0.1-0.1,0.2l-0.7,0.9
		c-0.1,0.2-0.3,0.3-0.4,0.3c-0.1,0-0.2,0-0.3,0h-1.5l2.1-2.4h2L-147.8,390.7z"/>
	<path id="XMLID_13_" class="st1" d="M-130,391.6v12.6h-2.1v-8.1c0-0.3,0-0.7,0.1-1.1l-3.8,7.2c-0.2,0.3-0.5,0.5-0.9,0.5h-0.3
		c-0.4,0-0.6-0.2-0.8-0.5l-3.9-7.2c0,0.2,0,0.4,0,0.6c0,0.2,0,0.4,0,0.5v8.1h-2.1v-12.6h1.8c0.1,0,0.2,0,0.3,0c0.1,0,0.1,0,0.2,0
		s0.1,0.1,0.2,0.1c0,0.1,0.1,0.1,0.1,0.2l3.8,7c0.1,0.2,0.2,0.4,0.3,0.6c0.1,0.2,0.2,0.4,0.2,0.6c0.1-0.2,0.2-0.4,0.3-0.6
		c0.1-0.2,0.2-0.4,0.3-0.6l3.7-7c0-0.1,0.1-0.2,0.1-0.2s0.1-0.1,0.2-0.1s0.1,0,0.2,0s0.2,0,0.3,0C-131.8,391.6-130,391.6-130,391.6z
		"/>
	<path id="XMLID_15_" class="st1" d="M-118,396.9h0.5c0.2,0,0.4,0,0.5-0.1s0.3-0.2,0.4-0.3l3.5-4.4c0.1-0.2,0.3-0.3,0.5-0.4
		s0.4-0.1,0.6-0.1h2l-4.2,5.2c-0.3,0.3-0.5,0.5-0.8,0.7c0.2,0.1,0.4,0.2,0.5,0.3c0.2,0.1,0.3,0.3,0.4,0.5l4.4,5.9h-2.1
		c-0.3,0-0.5,0-0.6-0.1s-0.3-0.2-0.3-0.3l-3.6-4.7c-0.1-0.2-0.2-0.3-0.4-0.3c-0.1-0.1-0.4-0.1-0.6-0.1h-0.7v5.5h-2.3v-12.6h2.3
		V396.9z"/>
	<path id="XMLID_17_" class="st1" d="M-100.4,393.9c-0.1,0.1-0.1,0.2-0.2,0.3s-0.2,0.1-0.3,0.1c-0.1,0-0.3,0-0.4-0.1
		s-0.3-0.2-0.5-0.3c-0.2-0.1-0.4-0.2-0.7-0.3c-0.3-0.1-0.6-0.1-0.9-0.1s-0.6,0-0.9,0.1c-0.2,0.1-0.4,0.2-0.6,0.3
		c-0.2,0.1-0.3,0.3-0.4,0.5c-0.1,0.2-0.1,0.4-0.1,0.6c0,0.3,0.1,0.5,0.2,0.7c0.2,0.2,0.4,0.4,0.7,0.5s0.6,0.3,0.9,0.4
		s0.7,0.2,1.1,0.4c0.4,0.1,0.7,0.3,1.1,0.4c0.3,0.2,0.7,0.4,0.9,0.6c0.3,0.3,0.5,0.6,0.7,0.9c0.2,0.4,0.2,0.8,0.2,1.3
		c0,0.6-0.1,1.1-0.3,1.6s-0.5,0.9-0.9,1.3s-0.8,0.7-1.4,0.9c-0.5,0.2-1.2,0.3-1.9,0.3c-0.4,0-0.8,0-1.2-0.1
		c-0.4-0.1-0.8-0.2-1.1-0.3c-0.4-0.1-0.7-0.3-1-0.5c-0.3-0.2-0.6-0.4-0.8-0.7l0.7-1.1c0.1-0.1,0.1-0.1,0.2-0.2
		c0.1-0.1,0.2-0.1,0.3-0.1c0.1,0,0.3,0.1,0.5,0.2c0.2,0.1,0.4,0.3,0.6,0.4c0.2,0.1,0.5,0.3,0.8,0.4s0.7,0.2,1.1,0.2
		c0.7,0,1.2-0.2,1.6-0.5c0.4-0.3,0.5-0.8,0.5-1.4c0-0.3-0.1-0.6-0.2-0.8c-0.2-0.2-0.4-0.4-0.7-0.5c-0.3-0.1-0.6-0.3-0.9-0.4
		c-0.3-0.1-0.7-0.2-1.1-0.3s-0.7-0.3-1.1-0.4s-0.7-0.4-0.9-0.6c-0.3-0.3-0.5-0.6-0.7-1s-0.2-0.9-0.2-1.5c0-0.5,0.1-0.9,0.3-1.3
		c0.2-0.4,0.4-0.8,0.8-1.2s0.8-0.6,1.3-0.8c0.5-0.2,1.1-0.3,1.8-0.3c0.7,0,1.4,0.1,2.1,0.3c0.6,0.2,1.2,0.6,1.6,1L-100.4,393.9z"/>
	<path id="XMLID_19_" class="st1" d="M-93.9,393.5v3.7h4.7v1.9h-4.7v5.1h-2.4v-12.6h7.9v1.9H-93.9z"/>
</g>
</svg>
