<svg xmlns="http://www.w3.org/2000/svg" width="17" height="17" viewBox="0 0 17 17">
    <path fill="#FFF" fill-rule="nonzero" d="M8.5 0C3.831 0 0 3.831 0 8.5c0 1.519.411 3.006 1.19 4.316L.027 16.344a.498.498 0 0 0 .63.63l3.527-1.165A8.434 8.434 0 0 0 8.5 17c4.669 0 8.5-3.83 8.5-8.5C17 3.832 13.169 0 8.5 0zm0 14.974c-.824 0-1.494-.67-1.494-1.494s.67-1.494 1.494-1.494 1.494.67 1.494 1.494-.67 1.494-1.494 1.494zm2.1-7.165L9.496 8.912v1.082c0 .55-.447.996-.996.996a.997.997 0 0 1-.996-.996V8.912c0-.532.207-1.032.584-1.408L9.19 6.4c.255-.255.305-.513.305-.843 0-.574-.467-1.041-1.042-1.041a.952.952 0 0 0-.95.95c0 .549-.447.996-.996.996a.997.997 0 0 1-.996-.996 2.946 2.946 0 0 1 2.942-2.943 3.037 3.037 0 0 1 3.034 3.034c0 .942-.308 1.671-.888 2.252z"/>
</svg>
