<svg xmlns="http://www.w3.org/2000/svg" width="21" height="16" viewBox="0 0 21 16">
    <path fill="#FFF" fill-rule="nonzero" d="M20.266 10.328h-1.707V7.934l-.002-.012.002-.011c0-.362-.33-.656-.735-.656h-6.59V5.671h1.707c.406 0 .734-.294.734-.656V.655c0-.362-.328-.655-.734-.655H8.06c-.406 0-.734.293-.734.655v4.36c0 .363.328.656.734.656h1.707v1.584h-6.59c-.406 0-.735.294-.735.656v2.418H.734c-.406 0-.734.293-.734.655v4.36c0 .362.328.656.734.656h4.883c.406 0 .734-.294.734-.656v-4.36c0-.362-.328-.656-.734-.656H3.91V8.566h5.857v1.762H8.059c-.406 0-.734.294-.734.656v4.36c0 .362.328.656.734.656h4.882c.406 0 .734-.294.734-.656v-4.36c0-.362-.328-.656-.734-.656h-1.707V8.566h5.857v1.762h-1.708c-.405 0-.734.294-.734.656v4.36c0 .362.329.656.734.656h4.883c.406 0 .734-.294.734-.656v-4.36c0-.362-.329-.656-.734-.656z"/>
</svg>
