<svg xmlns="http://www.w3.org/2000/svg" width="19" height="16" viewBox="0 0 19 16">
    <path fill="#FFF" fill-rule="nonzero" d="M16.395 9A2.6 2.6 0 0 1 19 11.589v2.858A1.56 1.56 0 0 1 17.437 16H15.13c.058-.162.09-.336.09-.518V10.24c0-.435-.078-.853-.22-1.24h1.395zM3.78 10.24v5.242c0 .182.032.356.09.518H1.563A1.56 1.56 0 0 1 0 14.447v-2.858A2.6 2.6 0 0 1 2.605 9H4c-.142.387-.22.805-.22 1.24zM11.21 7A2.794 2.794 0 0 1 14 9.79v5.652c0 .308-.25.558-.558.558H5.558A.558.558 0 0 1 5 15.442V9.79A2.794 2.794 0 0 1 7.79 7h3.42zM9.5 0C11.43 0 13 1.57 13 3.5a3.502 3.502 0 0 1-5.21 3.053A3.502 3.502 0 0 1 6 3.5C6 1.57 7.57 0 9.5 0zm-6 3a2.503 2.503 0 0 1 2.206 3.674c-.267.5-.698.898-1.22 1.123A2.503 2.503 0 0 1 1 5.5C.999 4.121 2.12 3 3.499 3zm12 0C16.879 3 18 4.121 18 5.5a2.503 2.503 0 0 1-3.485 2.297 2.515 2.515 0 0 1-1.221-1.123A2.503 2.503 0 0 1 15.5 3z"/>
</svg>
