<?xml version="1.0" encoding="UTF-8"?>
<svg width="97px" height="89px" viewBox="0 0 97 89" version="1.1" xmlns="http://www.w3.org/2000/svg" xmlns:xlink="http://www.w3.org/1999/xlink">
    <!-- Generator: Sketch 49.3 (51167) - http://www.bohemiancoding.com/sketch -->
    <title>to_new_position</title>
    <desc>Created with Sketch.</desc>
    <defs></defs>
    <g id="Page-1" stroke="none" stroke-width="1" fill="none" fill-rule="evenodd">
        <g id="Change-position" transform="translate(-279.000000, -336.000000)">
            <g id="Group-9" transform="translate(253.000000, 318.000000)">
                <g id="to_new_position" transform="translate(23.000000, 19.000000)">
                    <g id="Group-2-Copy">
                        <circle id="Oval-2" stroke="#979797" fill="#D8D8D8" cx="51" cy="15" r="15"></circle>
                        <g id="Group" transform="translate(23.000000, 50.000000) rotate(-5.000000) translate(-23.000000, -50.000000) translate(2.000000, 29.000000)">
                            <circle id="Oval-2-Copy" fill="#F68D1E" cx="10" cy="32" r="10"></circle>
                            <path d="M41.5,0.5 L17.4791757,24.5208243" id="Line-2" stroke="#979797" stroke-linecap="square"></path>
                        </g>
                        <g id="Group" transform="translate(79.000000, 50.000000) scale(-1, 1) rotate(-5.000000) translate(-79.000000, -50.000000) translate(58.000000, 29.000000)" stroke="#979797" stroke-dasharray="2,4" stroke-linecap="round">
                            <path d="M10,42 C15.5228475,42 20,37.5228475 20,32 C20,26.4771525 15.5228475,22 10,22 C4.4771525,22 0,26.4771525 0,32 C0,37.5228475 4.4771525,42 10,42 Z" id="Oval-2-Copy"></path>
                            <path d="M41.5,0.5 L17.4791757,24.5208243" id="Line-2"></path>
                        </g>
                    </g>
                    <g id="Group-3-Copy" transform="translate(22.000000, 70.000000)">
                        <path d="M0,3 C12.2288837,21.2831074 43.4103592,22.0463257 56,3" id="Path-5" stroke="#F68D1E" stroke-width="0.5"></path>
                        <polygon id="Triangle" fill="#F68D1E" transform="translate(56.198113, 3.087497) rotate(36.000000) translate(-56.198113, -3.087497) " points="56.198113 1.08749712 58.698113 5.08749712 53.698113 5.08749712"></polygon>
                    </g>
                </g>
            </g>
        </g>
    </g>
</svg>