<?xml version="1.0" encoding="utf-8"?>
<!-- Generator: Adobe Illustrator 19.0.0, SVG Export Plug-In . SVG Version: 6.00 Build 0)  -->
<svg version="1.1" id="Layer_1" xmlns="http://www.w3.org/2000/svg" xmlns:xlink="http://www.w3.org/1999/xlink" x="0px" y="0px"
	 viewBox="-140 328.4 331 137.6" style="enable-background:new -140 328.4 331 137.6;" xml:space="preserve">
<style type="text/css">
	.st0{fill:#78BB43;}
	.st1{fill:#FFFFFF;}
</style>
<rect id="XMLID_1_" x="-139.7" y="327.1" class="st0" width="331" height="141"/>
<g>
	<g>
		<path class="st1" d="M40.9,391.6l-11.6,11.6l-2.2,2.2c-0.3,0.3-0.7,0.4-1.1,0.4c-0.4,0-0.8-0.2-1.1-0.4l-2.2-2.2l-5.8-5.8
			c-0.3-0.3-0.4-0.7-0.4-1.1s0.2-0.8,0.4-1.1l2.2-2.2c0.3-0.3,0.7-0.4,1.1-0.4s0.8,0.2,1.1,0.4l4.7,4.7l10.5-10.5
			c0.3-0.3,0.7-0.4,1.1-0.4c0.4,0,0.8,0.2,1.1,0.4l2.2,2.2c0.3,0.3,0.4,0.7,0.4,1.1S41.2,391.3,40.9,391.6z"/>
	</g>
	<g>
		<path class="st1" d="M35.4,399.9c-1.1,4.7-5.2,8.2-10.2,8.2c-5.8,0-10.5-4.7-10.5-10.5c0-5.8,4.7-10.5,10.5-10.5
			c2.3,0,4.5,0.8,6.3,2.1l3-3c-2.5-2-5.8-3.3-9.3-3.3c-8.2,0-14.8,6.6-14.8,14.8s6.6,14.8,14.8,14.8S40,405.8,40,397.6
			c0-0.7-0.1-1.4-0.2-2.1L35.4,399.9z"/>
	</g>
</g>
</svg>
