<?xml version="1.0" encoding="utf-8"?>
<!-- Generator: Adobe Illustrator 19.0.0, SVG Export Plug-In . SVG Version: 6.00 Build 0)  -->
<svg version="1.1" id="Layer_1" xmlns="http://www.w3.org/2000/svg" xmlns:xlink="http://www.w3.org/1999/xlink" x="0px" y="0px"
	 viewBox="0 0 331 137.6" style="enable-background:new 0 0 331 137.6;" xml:space="preserve">
<style type="text/css">
	.st0{fill:#939393;}
	.st1{display:none;}
	.st2{display:inline;fill:#FFFFFF;}
	.st3{fill:#FFFFFF;}
</style>
<rect id="XMLID_1_" y="-1.7" class="st0" width="331" height="141"/>
<g id="XMLID_55_" class="st1">
	<path id="XMLID_56_" class="st2" d="M165.5,84.2c-8.2,0-14.8-6.6-14.8-14.8s6.6-14.8,14.8-14.8c8.2,0,14.8,6.6,14.8,14.8
		S173.7,84.2,165.5,84.2z M155,69.3c0,5.8,4.7,10.5,10.5,10.5S176,75.1,176,69.3s-4.7-10.5-10.5-10.5S155,63.5,155,69.3z"/>
</g>
<g id="XMLID_59_">
	<path id="XMLID_60_" class="st3" d="M178.1,69.8c0,6.3-5.1,11.3-11.3,11.3s-11.3-5.1-11.3-11.3c0-6.3,5.1-11.3,11.3-11.3
		S178.1,63.5,178.1,69.8z M168.9,62.6c0-0.1,0-0.2-0.1-0.3c-0.1-0.1-0.2-0.1-0.4-0.1h-3.2c-0.1,0-0.3,0-0.4,0.1
		c-0.1,0.1-0.1,0.2-0.1,0.3l0.3,9.2c0,0.2,0.2,0.4,0.5,0.4h2.7c0.3,0,0.5-0.2,0.5-0.4L168.9,62.6z M168.6,74c0-0.3-0.2-0.5-0.5-0.5
		h-2.8c-0.3,0-0.5,0.2-0.5,0.5v2.8c0,0.3,0.2,0.5,0.5,0.5h2.8c0.3,0,0.5-0.2,0.5-0.5V74z"/>
</g>
</svg>
