<?xml version="1.0" encoding="utf-8"?>
<!-- Generator: Adobe Illustrator 19.0.0, SVG Export Plug-In . SVG Version: 6.00 Build 0)  -->
<svg version="1.1" id="Layer_1" xmlns="http://www.w3.org/2000/svg" xmlns:xlink="http://www.w3.org/1999/xlink" x="0px" y="0px"
	 viewBox="-256 348.7 97.7 96.3" style="enable-background:new -256 348.7 97.7 96.3;" xml:space="preserve">
<style type="text/css">
	.st0{fill:#DAE3E6;}
	.st1{fill:#FFFFFF;stroke:#101213;stroke-width:2;stroke-linecap:round;stroke-linejoin:round;stroke-miterlimit:10;}
	.st2{fill:#FFFFFF;}
	.st3{fill:#27B681;stroke:#393229;stroke-width:2;stroke-linecap:round;stroke-linejoin:round;stroke-miterlimit:10;}
	.st4{fill:none;stroke:#2B2235;stroke-width:2;stroke-linecap:round;stroke-linejoin:round;stroke-miterlimit:10;}
	.st5{fill:none;stroke:#242E39;stroke-width:2;stroke-linecap:round;stroke-linejoin:round;stroke-miterlimit:10;}
	.st6{fill:none;stroke:#212A35;stroke-width:2;stroke-linecap:round;stroke-linejoin:round;stroke-miterlimit:10;}
</style>
<g id="XMLID_53_">
	<circle id="XMLID_72_" class="st0" cx="-207.2" cy="396.9" r="45"/>
	<path id="XMLID_71_" class="st1" d="M-234.2,419.9h54c1.1,0,2-0.9,2-2v-42c0-1.1-0.9-2-2-2h-54c-1.1,0-2,0.9-2,2v42
		C-236.2,419-235.3,419.9-234.2,419.9z"/>
	<path id="XMLID_70_" class="st2" d="M-226.2,402.8c-2.4-2.2-3.9-5.4-3.9-8.9c0-6.6,5.4-12,12-12c6.6,0,12,5.4,12,12
		c0,3.7-1.7,7.1-4.4,9.3c-2.1,1.7-4.7,2.7-7.6,2.7C-221.3,405.9-224.1,404.7-226.2,402.8z"/>
	<path id="XMLID_69_" class="st3" d="M-210.6,402.6l0.1,0.5c-2.1,1.7-4.7,2.7-7.6,2.7c-3.1,0-5.9-1.2-8.1-3.1l0.5-0.2
		c1-0.9,2.6-1.5,4.5-1.9c0.3-0.1,0.5-0.3,0.5-0.6c0-0.3,0-0.7,0-1c0-0.9-1-1.8-1-2.9c-0.3-0.7-0.5-1.3-0.5-1.8
		c0-0.3,0.1-0.6,0.2-0.7c-0.1-0.4-0.1-0.9-0.2-1.3c-0.3-1.8,0.3-2.9,1.9-3.6c0.3-0.1,0.1-1.9,0.4-1.6c0.9,0.9,3.3,1.3,3.9,1.5
		c1.6,0.6,2.3,1.9,1.9,3.7c-0.1,0.5-0.2,0.9-0.2,1.3c0.2,0.1,0.2,0.4,0.2,0.7c0,0.5-0.2,1.2-0.5,1.8c-0.1,1.1-1,2.1-1,2.9
		c0,0.4,0,0.7,0,1c0,0.3,0.2,0.5,0.5,0.6C-213.2,401.1-211.6,401.7-210.6,402.6z"/>
	<path id="XMLID_68_" class="st4" d="M-210.6,402.6c-1-0.9-2.6-1.5-4.5-1.9c-0.3-0.1-0.5-0.3-0.5-0.6c0-0.3,0-0.7,0-1
		c0-0.8,1-1.8,1-2.9c0.3-0.7,0.5-1.3,0.5-1.8c0-0.3-0.1-0.6-0.2-0.7c0.1-0.4,0.2-0.9,0.2-1.3c0.3-1.8-0.3-3.2-1.9-3.7
		c-0.6-0.2-3-0.6-3.9-1.5c-0.3-0.3-0.1,1.5-0.4,1.6c-1.6,0.7-2.2,1.8-1.9,3.6c0.1,0.5,0.2,0.9,0.2,1.3c-0.1,0.1-0.2,0.4-0.2,0.7
		c0,0.5,0.2,1.2,0.5,1.8c0.1,1.1,1,2,1,2.9c0,0.4,0,0.7,0,1c0,0.3-0.2,0.5-0.5,0.6c-1.9,0.3-3.6,1-4.5,1.9"/>
	<g id="XMLID_57_">
		<line id="XMLID_67_" class="st5" x1="-200.2" y1="381.9" x2="-190.2" y2="381.9"/>
		<line id="XMLID_66_" class="st5" x1="-200.2" y1="385.9" x2="-184.2" y2="385.9"/>
		<line id="XMLID_65_" class="st5" x1="-200.2" y1="389.9" x2="-184.2" y2="389.9"/>
		<line id="XMLID_64_" class="st5" x1="-200.2" y1="393.9" x2="-184.2" y2="393.9"/>
		<line id="XMLID_63_" class="st5" x1="-200.2" y1="397.9" x2="-184.2" y2="397.9"/>
		<line id="XMLID_62_" class="st5" x1="-200.2" y1="401.9" x2="-184.2" y2="401.9"/>
		<line id="XMLID_61_" class="st5" x1="-200.2" y1="405.9" x2="-184.2" y2="405.9"/>
		<line id="XMLID_60_" class="st5" x1="-196.2" y1="413.9" x2="-184.2" y2="413.9"/>
		<line id="XMLID_59_" class="st5" x1="-230.2" y1="413.9" x2="-220.2" y2="413.9"/>
		<line id="XMLID_58_" class="st5" x1="-214.2" y1="413.9" x2="-202.2" y2="413.9"/>
	</g>
	<path id="XMLID_56_" class="st6" d="M-226.2,402.8c-2.4-2.2-3.9-5.4-3.9-8.9c0-6.6,5.4-12,12-12c6.6,0,12,5.4,12,12
		c0,3.7-1.7,7.1-4.4,9.3c-2.1,1.7-4.7,2.7-7.6,2.7C-221.3,405.9-224.1,404.7-226.2,402.8z"/>
</g>
</svg>
