<?xml version="1.0" encoding="utf-8"?>
<!-- Generator: Adobe Illustrator 19.0.0, SVG Export Plug-In . SVG Version: 6.00 Build 0)  -->
<svg version="1.1" id="Layer_1" xmlns="http://www.w3.org/2000/svg" xmlns:xlink="http://www.w3.org/1999/xlink" x="0px" y="0px"
	 viewBox="-149 371 312.7 52" style="enable-background:new -149 371 312.7 52;" xml:space="preserve">
<style type="text/css">
	.st0{fill:#379FD9;}
</style>
<g id="XMLID_7_">
	<g id="XMLID_381_">
		<path id="XMLID_401_" class="st0" d="M59,415.9c-0.2,0.6-0.6,1.1-1.1,1.4c-0.5,0.3-1,0.5-1.5,0.5h-2.1L66,388c0.2-0.6,0.5-1,1-1.3
			c0.4-0.3,1-0.4,1.5-0.4h2.1L59,415.9z"/>
		<path id="XMLID_399_" class="st0" d="M104.5,403.1v12.4h-2.3v-5.4h-5.8v5.4h-2.3v-12.4h2.3v5.3h5.8v-5.3
			C102.2,403.1,104.5,403.1,104.5,403.1z"/>
		<path id="XMLID_395_" class="st0" d="M110.6,406.5c0.7,0,1.3,0.1,1.8,0.3s1,0.5,1.4,0.9c0.3,0.4,0.7,0.9,0.9,1.5
			c0.2,0.6,0.3,1.2,0.3,1.9s-0.1,1.3-0.3,1.9c-0.2,0.6-0.5,1-0.9,1.5c-0.3,0.4-0.9,0.7-1.4,0.9c-0.5,0.3-1.1,0.3-1.8,0.3
			c-0.7,0-1.3-0.1-1.8-0.3s-1-0.5-1.4-0.9c-0.3-0.4-0.7-0.9-0.9-1.5c-0.2-0.6-0.3-1.2-0.3-1.9s0.1-1.3,0.3-1.9
			c0.3-0.6,0.5-1,0.9-1.5c0.3-0.4,0.9-0.7,1.4-0.9S109.9,406.5,110.6,406.5z M110.6,413.9c0.8,0,1.3-0.3,1.6-0.8s0.5-1.2,0.5-2.1
			s-0.2-1.7-0.5-2.1c-0.3-0.4-0.9-0.8-1.6-0.8s-1.3,0.3-1.6,0.8c-0.3,0.5-0.5,1.2-0.5,2.1s0.2,1.6,0.5,2.1
			C109.3,413.6,109.8,413.9,110.6,413.9z M111.8,417.4c0,0.2,0,0.3-0.1,0.4c-0.1,0.2-0.2,0.3-0.3,0.3c-0.1,0.1-0.3,0.2-0.4,0.3
			c-0.2,0.1-0.3,0.1-0.4,0.1c-0.1,0-0.3,0-0.4-0.1c-0.2-0.1-0.3-0.2-0.3-0.3c-0.1-0.1-0.2-0.3-0.3-0.3c-0.1-0.2-0.1-0.3-0.1-0.4
			c0-0.2,0-0.3,0.1-0.4c0.1-0.2,0.2-0.3,0.3-0.3c0.1-0.1,0.3-0.2,0.3-0.3c0.2-0.1,0.3-0.1,0.4-0.1c0.2,0,0.3,0,0.4,0.1
			c0.2,0.1,0.3,0.2,0.4,0.3c0.1,0.1,0.2,0.3,0.3,0.3S111.8,417.2,111.8,417.4z"/>
		<path id="XMLID_393_" class="st0" d="M122.8,408.4c-0.1,0.1-0.1,0.2-0.2,0.2c-0.1,0.1-0.2,0.1-0.3,0.1c-0.1,0-0.3,0-0.3-0.1
			c-0.1-0.1-0.3-0.2-0.3-0.3c-0.1-0.1-0.3-0.2-0.5-0.3s-0.4-0.1-0.8-0.1s-0.7,0.1-0.9,0.2c-0.3,0.2-0.5,0.3-0.7,0.6
			c-0.2,0.3-0.3,0.5-0.4,0.9c-0.1,0.3-0.2,0.8-0.2,1.2s0.1,0.9,0.2,1.3c0.1,0.3,0.3,0.7,0.4,0.9s0.4,0.4,0.7,0.6s0.6,0.2,0.9,0.2
			s0.6,0,0.9-0.1c0.2-0.1,0.3-0.2,0.5-0.3s0.3-0.2,0.3-0.3c0.1-0.1,0.3-0.1,0.3-0.1c0.2,0,0.3,0.1,0.4,0.2l0.6,0.8
			c-0.3,0.3-0.5,0.5-0.8,0.7c-0.3,0.2-0.6,0.3-0.9,0.4s-0.6,0.2-0.9,0.3c-0.3,0.1-0.6,0.1-0.9,0.1c-0.5,0-1-0.1-1.5-0.3
			c-0.5-0.2-0.9-0.5-1.3-0.9c-0.3-0.4-0.7-0.9-0.9-1.5c-0.2-0.6-0.3-1.2-0.3-1.9s0.1-1.3,0.3-1.8c0.2-0.5,0.4-1,0.9-1.5
			c0.3-0.4,0.8-0.7,1.4-0.9c0.6-0.3,1.1-0.3,1.8-0.3c0.7,0,1.2,0.1,1.7,0.3c0.5,0.2,0.9,0.5,1.4,0.9L122.8,408.4z"/>
		<path id="XMLID_391_" class="st0" d="M136.3,406.6l-3.5,8.8H131l-3.5-8.8h1.7c0.2,0,0.3,0,0.4,0.1c0.1,0.1,0.2,0.2,0.2,0.3
			l1.7,4.7c0.1,0.3,0.2,0.5,0.3,0.8c0.1,0.3,0.2,0.5,0.2,0.8c0.1-0.3,0.1-0.5,0.2-0.8c0.1-0.3,0.2-0.5,0.3-0.8l1.7-4.7
			c0-0.1,0.1-0.2,0.3-0.3c0.1-0.1,0.3-0.1,0.3-0.1H136.3z"/>
		<path id="XMLID_388_" class="st0" d="M139.9,404.1c0,0.2,0,0.3-0.1,0.5c-0.1,0.2-0.2,0.3-0.3,0.4c-0.1,0.1-0.3,0.3-0.4,0.3
			c-0.2,0.1-0.3,0.1-0.5,0.1c-0.2,0-0.3,0-0.5-0.1c-0.2-0.1-0.3-0.2-0.4-0.3c-0.1-0.1-0.3-0.3-0.3-0.4c-0.1-0.2-0.1-0.3-0.1-0.5
			s0-0.3,0.1-0.5s0.2-0.3,0.3-0.4c0.1-0.1,0.3-0.3,0.4-0.3c0.2-0.1,0.3-0.1,0.5-0.1c0.2,0,0.3,0,0.5,0.1c0.2,0.1,0.3,0.2,0.4,0.3
			c0.1,0.1,0.3,0.3,0.3,0.4C139.9,403.7,139.9,403.9,139.9,404.1z M139.7,406.6v8.8h-2.1v-8.8H139.7z"/>
		<path id="XMLID_384_" class="st0" d="M143.4,411.2c0,0.4,0.1,0.9,0.3,1.2c0.1,0.3,0.3,0.6,0.5,0.9c0.2,0.3,0.4,0.3,0.8,0.5
			c0.3,0.1,0.6,0.2,0.9,0.2c0.3,0,0.6,0,0.9-0.1c0.3-0.1,0.4-0.2,0.7-0.3s0.3-0.2,0.5-0.3c0.2-0.1,0.3-0.1,0.4-0.1
			c0.2,0,0.3,0.1,0.4,0.2l0.6,0.8c-0.3,0.3-0.5,0.5-0.8,0.7s-0.6,0.3-0.9,0.4c-0.3,0.1-0.6,0.2-0.9,0.3c-0.3,0.1-0.7,0.1-0.9,0.1
			c-0.6,0-1.2-0.1-1.7-0.3c-0.5-0.2-0.9-0.5-1.4-0.9s-0.7-0.9-0.9-1.5s-0.3-1.3-0.3-2c0-0.6,0.1-1.2,0.3-1.7c0.2-0.5,0.5-1,0.9-1.4
			c0.3-0.4,0.8-0.7,1.4-0.9c0.5-0.3,1.1-0.3,1.8-0.3c0.5,0,1,0.1,1.5,0.3s0.9,0.4,1.2,0.8c0.3,0.3,0.6,0.8,0.8,1.3
			c0.2,0.5,0.3,1,0.3,1.7c0,0.3,0,0.5-0.1,0.7c-0.1,0.1-0.2,0.2-0.4,0.2h-5.5V411.2z M148.5,405.4h-1.4c-0.1,0-0.2,0-0.3-0.1
			c-0.1-0.1-0.2-0.1-0.3-0.2l-0.9-0.9c-0.1-0.1-0.1-0.1-0.2-0.2c-0.1,0.1-0.1,0.2-0.2,0.2l-0.9,0.9c-0.1,0.1-0.2,0.2-0.3,0.2
			c-0.1,0-0.2,0.1-0.3,0.1h-1.5l2-2.4h2L148.5,405.4z M147.4,410c0-0.3,0-0.5-0.1-0.8c-0.1-0.3-0.2-0.4-0.3-0.6
			c-0.2-0.2-0.3-0.3-0.6-0.4c-0.3-0.1-0.5-0.2-0.9-0.2c-0.6,0-1.1,0.2-1.5,0.5s-0.6,0.9-0.7,1.5C143.4,410,147.4,410,147.4,410z"/>
		<path id="XMLID_382_" class="st0" d="M152.9,407.7c0.2-0.2,0.3-0.3,0.6-0.5c0.2-0.2,0.4-0.3,0.6-0.3c0.2-0.1,0.4-0.2,0.7-0.3
			c0.3-0.1,0.5-0.1,0.9-0.1c0.5,0,0.9,0.1,1.3,0.3c0.3,0.2,0.7,0.4,0.9,0.7c0.3,0.3,0.4,0.7,0.6,1c0.2,0.4,0.2,0.9,0.2,1.4v5.5h-2.1
			v-5.5c0-0.5-0.1-0.9-0.3-1.3c-0.3-0.3-0.6-0.4-1.1-0.4c-0.3,0-0.7,0.1-1,0.3s-0.6,0.4-0.9,0.7v6.3h-2.1v-8.7h1.3
			c0.3,0,0.4,0.1,0.5,0.3L152.9,407.7z"/>
	</g>
</g>
<g id="XMLID_3_">
	<g id="XMLID_82_">
		<path id="XMLID_83_" class="st0" d="M50.8,379.6H49v14.3h-1.9c-0.4,0-0.7-0.2-0.8-0.6L46,392c-0.5,0.6-1.1,1.1-1.8,1.5
			s-1.5,0.6-2.4,0.6c-0.7,0-1.4-0.1-1.9-0.4c-0.6-0.3-1.1-0.7-1.5-1.2s-0.8-1.2-1-2s-0.3-1.7-0.3-2.8c0-1,0.1-1.9,0.4-2.7
			c0.3-0.8,0.6-1.5,1.1-2.1s1.1-1,1.8-1.4c0.7-0.3,1.5-0.5,2.3-0.5c0.7,0,1.3,0.1,1.8,0.3c0.5,0.2,1,0.5,1.4,0.9v-2.6H43v-2h2.9
			v-2.5H49v2.5h1.8V379.6z M45.8,384.6c-0.4-0.4-0.7-0.7-1.2-0.9c-0.5-0.2-0.9-0.3-1.3-0.3c-0.5,0-0.9,0.1-1.3,0.2
			c-0.4,0.2-0.7,0.4-1,0.7c-0.3,0.3-0.5,0.8-0.6,1.3s-0.2,1.2-0.2,1.9c0,0.8,0.1,1.4,0.2,1.9c0.1,0.5,0.3,0.9,0.5,1.2
			c0.2,0.3,0.5,0.5,0.8,0.6c0.3,0.1,0.7,0.2,1.1,0.2c0.6,0,1.2-0.1,1.7-0.4s0.9-0.6,1.3-1.1V384.6z"/>
	</g>
</g>
<g>
	<path class="st0" d="M80.4,406.3c0.1-0.7,0.3-1.3,0.6-1.8c0.3-0.5,0.6-0.9,1.1-1.3c0.4-0.3,0.9-0.6,1.4-0.8
		c0.5-0.2,1.1-0.3,1.8-0.3c0.7,0,1.2,0.1,1.8,0.3c0.5,0.2,1,0.4,1.3,0.8c0.4,0.3,0.7,0.7,0.9,1.2c0.2,0.4,0.3,0.9,0.3,1.4
		c0,0.5-0.1,0.8-0.2,1.2c-0.1,0.3-0.2,0.6-0.4,0.9c-0.2,0.3-0.4,0.5-0.7,0.6c-0.3,0.2-0.6,0.3-0.9,0.4c0.8,0.3,1.5,0.7,1.9,1.2
		c0.4,0.5,0.6,1.2,0.6,2.1c0,0.7-0.1,1.3-0.4,1.9c-0.3,0.5-0.6,1-1.1,1.4c-0.4,0.4-1,0.6-1.5,0.8c-0.6,0.2-1.2,0.3-1.9,0.3
		c-0.7,0-1.3-0.1-1.9-0.2c-0.5-0.2-1-0.4-1.4-0.7c-0.4-0.3-0.7-0.7-1-1.2s-0.5-1-0.7-1.6l1.1-0.4c0.3-0.1,0.5-0.1,0.8-0.1
		c0.2,0.1,0.4,0.2,0.5,0.4c0.1,0.2,0.2,0.5,0.4,0.7s0.3,0.4,0.5,0.6c0.2,0.2,0.4,0.3,0.7,0.4c0.3,0.1,0.6,0.2,0.9,0.2
		c0.4,0,0.8-0.1,1.1-0.2c0.3-0.1,0.6-0.3,0.8-0.5s0.4-0.5,0.5-0.7c0.1-0.3,0.2-0.5,0.2-0.8c0-0.3,0-0.6-0.1-0.9
		c-0.1-0.3-0.2-0.5-0.5-0.7c-0.2-0.2-0.6-0.3-1-0.5c-0.4-0.1-1-0.2-1.7-0.2v-1.7c0.6,0,1.1-0.1,1.5-0.2c0.4-0.1,0.7-0.3,0.9-0.4
		c0.2-0.2,0.4-0.4,0.5-0.7c0.1-0.3,0.1-0.5,0.1-0.9c0-0.7-0.2-1.2-0.6-1.5c-0.4-0.3-0.9-0.5-1.5-0.5c-0.3,0-0.6,0-0.8,0.1
		c-0.2,0.1-0.5,0.2-0.7,0.3c-0.2,0.1-0.4,0.3-0.5,0.5c-0.1,0.2-0.2,0.4-0.3,0.6c-0.1,0.3-0.3,0.5-0.4,0.6c-0.2,0.1-0.4,0.1-0.8,0.1
		L80.4,406.3z"/>
</g>
<g>
	<path class="st0" d="M-135.5,398.7l-1,1.3c0.6-0.3,1.2-0.5,1.8-0.7c0.7-0.2,1.4-0.2,2.1-0.2c1.1,0,2.2,0.2,3.3,0.6
		c1.1,0.4,2,0.9,2.8,1.7c0.8,0.7,1.5,1.7,1.9,2.8c0.5,1.1,0.7,2.4,0.7,3.9c0,1.4-0.3,2.7-0.8,3.9c-0.5,1.2-1.2,2.3-2.1,3.2
		s-2,1.6-3.3,2.1c-1.3,0.5-2.7,0.8-4.3,0.8c-1.6,0-3-0.3-4.2-0.8c-1.3-0.5-2.3-1.2-3.2-2.1c-0.9-0.9-1.6-2-2-3.3
		c-0.5-1.3-0.7-2.7-0.7-4.2c0-1.4,0.3-2.8,0.8-4.3c0.6-1.5,1.4-3,2.6-4.6l7-9.5c0.2-0.3,0.6-0.6,1.1-0.8s1-0.3,1.6-0.3h4.5
		L-135.5,398.7z M-134.4,413.7c0.8,0,1.5-0.1,2.2-0.4s1.3-0.7,1.7-1.1s0.9-1.1,1.1-1.7s0.4-1.4,0.4-2.2c0-0.8-0.1-1.6-0.4-2.3
		c-0.3-0.7-0.6-1.2-1.1-1.7c-0.5-0.5-1-0.8-1.7-1.1s-1.4-0.4-2.2-0.4s-1.5,0.1-2.2,0.4c-0.7,0.3-1.2,0.7-1.7,1.1
		c-0.5,0.5-0.8,1.1-1.1,1.7c-0.3,0.7-0.4,1.4-0.4,2.1c0,0.8,0.1,1.6,0.3,2.2c0.2,0.7,0.6,1.2,1,1.7s1,0.8,1.6,1.1
		C-136,413.6-135.3,413.7-134.4,413.7z"/>
	<path class="st0" d="M-121.2,414.7c0-0.4,0.1-0.8,0.2-1.2c0.2-0.4,0.4-0.7,0.6-1c0.3-0.3,0.6-0.5,1-0.7c0.4-0.2,0.8-0.2,1.2-0.2
		s0.8,0.1,1.2,0.2c0.4,0.2,0.7,0.4,1,0.7c0.3,0.3,0.5,0.6,0.7,1c0.2,0.4,0.2,0.8,0.2,1.2c0,0.4-0.1,0.8-0.2,1.2
		c-0.2,0.4-0.4,0.7-0.7,1s-0.6,0.5-1,0.6c-0.4,0.2-0.8,0.2-1.2,0.2s-0.8-0.1-1.2-0.2c-0.4-0.2-0.7-0.4-1-0.6s-0.5-0.6-0.6-1
		C-121.1,415.6-121.2,415.2-121.2,414.7z"/>
	<path class="st0" d="M-105.3,398.7c0.7-0.1,1.3-0.2,1.9-0.3s1.2-0.1,1.7-0.1c1.6,0,2.9,0.2,4.1,0.7s2.2,1.1,3,1.9
		c0.8,0.8,1.4,1.8,1.8,2.9c0.4,1.1,0.6,2.3,0.6,3.5c0,1.6-0.3,3-0.8,4.3c-0.6,1.3-1.3,2.4-2.3,3.3c-1,0.9-2.1,1.6-3.5,2.1
		c-1.3,0.5-2.8,0.8-4.4,0.8c-0.9,0-1.8-0.1-2.6-0.3c-0.8-0.2-1.6-0.4-2.3-0.8c-0.7-0.3-1.4-0.7-2-1.1c-0.6-0.4-1.2-0.9-1.7-1.3
		l1.6-2.1c0.3-0.5,0.8-0.7,1.3-0.7c0.3,0,0.7,0.1,1,0.3c0.4,0.2,0.8,0.5,1.2,0.7c0.5,0.3,1,0.5,1.6,0.7c0.6,0.2,1.4,0.3,2.2,0.3
		c0.9,0,1.7-0.1,2.5-0.4s1.3-0.7,1.8-1.3s0.8-1.2,1.1-1.9s0.4-1.5,0.4-2.4c0-1.6-0.5-2.9-1.4-3.8c-0.9-0.9-2.3-1.4-4.1-1.4
		c-1.4,0-2.8,0.3-4.3,0.8l-3.1-0.9l2.5-14.3h14.6v2.1c0,0.7-0.2,1.3-0.7,1.8s-1.2,0.7-2.3,0.7h-8.1L-105.3,398.7z"/>
	<path class="st0" d="M-67.7,402.7c0,2.6-0.3,4.8-0.8,6.7c-0.6,1.9-1.3,3.5-2.3,4.7c-1,1.2-2.1,2.2-3.5,2.8
		c-1.3,0.6-2.8,0.9-4.3,0.9s-3-0.3-4.3-0.9s-2.5-1.5-3.4-2.8c-1-1.2-1.7-2.8-2.3-4.7s-0.8-4.1-0.8-6.7c0-2.6,0.3-4.8,0.8-6.7
		s1.3-3.5,2.3-4.7c1-1.2,2.1-2.2,3.4-2.8s2.7-0.9,4.3-0.9s3,0.3,4.3,0.9c1.3,0.6,2.5,1.5,3.5,2.8c1,1.2,1.7,2.8,2.3,4.7
		C-68,397.9-67.7,400.1-67.7,402.7z M-72.9,402.7c0-2.1-0.2-3.9-0.5-5.3c-0.3-1.4-0.7-2.5-1.3-3.3c-0.5-0.8-1.1-1.4-1.8-1.7
		c-0.7-0.3-1.4-0.5-2.1-0.5c-0.7,0-1.4,0.2-2.1,0.5c-0.7,0.3-1.3,0.9-1.8,1.7c-0.5,0.8-0.9,1.9-1.2,3.3c-0.3,1.4-0.5,3.2-0.5,5.3
		s0.2,3.9,0.5,5.3c0.3,1.4,0.7,2.5,1.2,3.3c0.5,0.8,1.1,1.4,1.8,1.7c0.7,0.3,1.4,0.5,2.1,0.5c0.7,0,1.4-0.2,2.1-0.5
		c0.7-0.3,1.3-0.9,1.8-1.7c0.5-0.8,0.9-1.9,1.3-3.3C-73,406.6-72.9,404.9-72.9,402.7z"/>
	<path class="st0" d="M-44.4,402.7c0,2.6-0.3,4.8-0.8,6.7c-0.6,1.9-1.3,3.5-2.3,4.7c-1,1.2-2.1,2.2-3.5,2.8
		c-1.3,0.6-2.8,0.9-4.3,0.9s-3-0.3-4.3-0.9s-2.5-1.5-3.4-2.8c-1-1.2-1.7-2.8-2.3-4.7s-0.8-4.1-0.8-6.7c0-2.6,0.3-4.8,0.8-6.7
		s1.3-3.5,2.3-4.7c1-1.2,2.1-2.2,3.4-2.8s2.7-0.9,4.3-0.9s3,0.3,4.3,0.9c1.3,0.6,2.5,1.5,3.5,2.8c1,1.2,1.7,2.8,2.3,4.7
		C-44.7,397.9-44.4,400.1-44.4,402.7z M-49.6,402.7c0-2.1-0.2-3.9-0.5-5.3c-0.3-1.4-0.7-2.5-1.3-3.3c-0.5-0.8-1.1-1.4-1.8-1.7
		c-0.7-0.3-1.4-0.5-2.1-0.5c-0.7,0-1.4,0.2-2.1,0.5c-0.7,0.3-1.3,0.9-1.8,1.7c-0.5,0.8-0.9,1.9-1.2,3.3c-0.3,1.4-0.5,3.2-0.5,5.3
		s0.2,3.9,0.5,5.3c0.3,1.4,0.7,2.5,1.2,3.3c0.5,0.8,1.1,1.4,1.8,1.7c0.7,0.3,1.4,0.5,2.1,0.5c0.7,0,1.4-0.2,2.1-0.5
		c0.7-0.3,1.3-0.9,1.8-1.7c0.5-0.8,0.9-1.9,1.3-3.3C-49.8,406.6-49.6,404.9-49.6,402.7z"/>
	<path class="st0" d="M-42,414.7c0-0.4,0.1-0.8,0.2-1.2c0.2-0.4,0.4-0.7,0.6-1c0.3-0.3,0.6-0.5,1-0.7c0.4-0.2,0.8-0.2,1.2-0.2
		s0.8,0.1,1.2,0.2c0.4,0.2,0.7,0.4,1,0.7c0.3,0.3,0.5,0.6,0.7,1c0.2,0.4,0.2,0.8,0.2,1.2c0,0.4-0.1,0.8-0.2,1.2
		c-0.2,0.4-0.4,0.7-0.7,1s-0.6,0.5-1,0.6c-0.4,0.2-0.8,0.2-1.2,0.2s-0.8-0.1-1.2-0.2c-0.4-0.2-0.7-0.4-1-0.6s-0.5-0.6-0.6-1
		C-42,415.6-42,415.2-42,414.7z"/>
	<path class="st0" d="M-11.8,402.7c0,2.6-0.3,4.8-0.8,6.7c-0.6,1.9-1.3,3.5-2.3,4.7c-1,1.2-2.1,2.2-3.5,2.8
		c-1.3,0.6-2.8,0.9-4.3,0.9s-3-0.3-4.3-0.9s-2.5-1.5-3.4-2.8c-1-1.2-1.7-2.8-2.3-4.7s-0.8-4.1-0.8-6.7c0-2.6,0.3-4.8,0.8-6.7
		s1.3-3.5,2.3-4.7c1-1.2,2.1-2.2,3.4-2.8s2.7-0.9,4.3-0.9s3,0.3,4.3,0.9c1.3,0.6,2.5,1.5,3.5,2.8c1,1.2,1.7,2.8,2.3,4.7
		C-12.1,397.9-11.8,400.1-11.8,402.7z M-17,402.7c0-2.1-0.2-3.9-0.5-5.3c-0.3-1.4-0.7-2.5-1.3-3.3c-0.5-0.8-1.1-1.4-1.8-1.7
		c-0.7-0.3-1.4-0.5-2.1-0.5c-0.7,0-1.4,0.2-2.1,0.5c-0.7,0.3-1.3,0.9-1.8,1.7c-0.5,0.8-0.9,1.9-1.2,3.3c-0.3,1.4-0.5,3.2-0.5,5.3
		s0.2,3.9,0.5,5.3c0.3,1.4,0.7,2.5,1.2,3.3c0.5,0.8,1.1,1.4,1.8,1.7c0.7,0.3,1.4,0.5,2.1,0.5c0.7,0,1.4-0.2,2.1-0.5
		c0.7-0.3,1.3-0.9,1.8-1.7c0.5-0.8,0.9-1.9,1.3-3.3C-17.2,406.6-17,404.9-17,402.7z"/>
	<path class="st0" d="M11.4,402.7c0,2.6-0.3,4.8-0.8,6.7c-0.6,1.9-1.3,3.5-2.3,4.7c-1,1.2-2.1,2.2-3.5,2.8c-1.3,0.6-2.8,0.9-4.3,0.9
		s-3-0.3-4.3-0.9s-2.5-1.5-3.4-2.8c-1-1.2-1.7-2.8-2.3-4.7s-0.8-4.1-0.8-6.7c0-2.6,0.3-4.8,0.8-6.7s1.3-3.5,2.3-4.7
		c1-1.2,2.1-2.2,3.4-2.8s2.7-0.9,4.3-0.9s3,0.3,4.3,0.9c1.3,0.6,2.5,1.5,3.5,2.8c1,1.2,1.7,2.8,2.3,4.7
		C11.2,397.9,11.4,400.1,11.4,402.7z M6.2,402.7c0-2.1-0.2-3.9-0.5-5.3c-0.3-1.4-0.7-2.5-1.3-3.3c-0.5-0.8-1.1-1.4-1.8-1.7
		c-0.7-0.3-1.4-0.5-2.1-0.5c-0.7,0-1.4,0.2-2.1,0.5c-0.7,0.3-1.3,0.9-1.8,1.7c-0.5,0.8-0.9,1.9-1.2,3.3c-0.3,1.4-0.5,3.2-0.5,5.3
		s0.2,3.9,0.5,5.3c0.3,1.4,0.7,2.5,1.2,3.3c0.5,0.8,1.1,1.4,1.8,1.7c0.7,0.3,1.4,0.5,2.1,0.5c0.7,0,1.4-0.2,2.1-0.5
		c0.7-0.3,1.3-0.9,1.8-1.7c0.5-0.8,0.9-1.9,1.3-3.3C6.1,406.6,6.2,404.9,6.2,402.7z"/>
	<path class="st0" d="M34.7,402.7c0,2.6-0.3,4.8-0.8,6.7c-0.6,1.9-1.3,3.5-2.3,4.7c-1,1.2-2.1,2.2-3.5,2.8s-2.8,0.9-4.3,0.9
		s-3-0.3-4.3-0.9c-1.3-0.6-2.5-1.5-3.4-2.8c-1-1.2-1.7-2.8-2.3-4.7s-0.8-4.1-0.8-6.7c0-2.6,0.3-4.8,0.8-6.7s1.3-3.5,2.3-4.7
		s2.1-2.2,3.4-2.8c1.3-0.6,2.7-0.9,4.3-0.9s3,0.3,4.3,0.9s2.5,1.5,3.5,2.8s1.7,2.8,2.3,4.7C34.5,397.9,34.7,400.1,34.7,402.7z
		 M29.5,402.7c0-2.1-0.2-3.9-0.5-5.3c-0.3-1.4-0.7-2.5-1.3-3.3c-0.5-0.8-1.1-1.4-1.8-1.7c-0.7-0.3-1.4-0.5-2.1-0.5
		c-0.7,0-1.4,0.2-2.1,0.5c-0.7,0.3-1.3,0.9-1.8,1.7c-0.5,0.8-0.9,1.9-1.2,3.3c-0.3,1.4-0.5,3.2-0.5,5.3s0.2,3.9,0.5,5.3
		c0.3,1.4,0.7,2.5,1.2,3.3c0.5,0.8,1.1,1.4,1.8,1.7c0.7,0.3,1.4,0.5,2.1,0.5c0.7,0,1.4-0.2,2.1-0.5c0.7-0.3,1.3-0.9,1.8-1.7
		c0.5-0.8,0.9-1.9,1.3-3.3C29.4,406.6,29.5,404.9,29.5,402.7z"/>
</g>
</svg>
