<?xml version="1.0" encoding="utf-8"?>
<!-- Generator: Adobe Illustrator 19.0.0, SVG Export Plug-In . SVG Version: 6.00 Build 0)  -->
<svg version="1.1" id="Layer_1" xmlns="http://www.w3.org/2000/svg" xmlns:xlink="http://www.w3.org/1999/xlink" x="0px" y="0px"
	 viewBox="-256 348.7 97.7 96.3" style="enable-background:new -256 348.7 97.7 96.3;" xml:space="preserve">
<style type="text/css">
	.st0{fill:#DAE3E6;}
	.st1{fill:#DAE3E6;stroke:#242E39;stroke-width:2;stroke-linecap:round;stroke-linejoin:round;stroke-miterlimit:10;}
	.st2{fill:none;stroke:#242E39;stroke-width:2;stroke-linecap:round;stroke-linejoin:round;stroke-miterlimit:10;}
	.st3{fill:#EEEAE1;stroke:#393229;stroke-width:2;stroke-linecap:round;stroke-linejoin:round;stroke-miterlimit:10;}
	.st4{fill:#35A0D8;stroke:#393229;stroke-width:2;stroke-linecap:round;stroke-linejoin:round;stroke-dasharray:0,3.9864;}
</style>
<circle class="st0" cx="-207.2" cy="396.9" r="45"/>
<path class="st0" d="M-178.2,386.9v1c0,1.6-1.4,3-3,3h-6c-1.6,0-3-1.3-3-3v-1"/>
<path class="st1" d="M-182.2,390.9v3c0,0.9,0,1.7,0.1,2.6l1.6,18.4c0.2,2.1-1.5,4-3.7,4l0,0c-2.2,0-3.8-1.8-3.7-4l1.6-18.4
	c0.1-0.9,0.1-1.7,0.1-2.6v-3"/>
<path class="st2" d="M-178.2,374.9v13c0,1.6-1.4,3-3,3h-6c-1.6,0-3-1.3-3-3v-13"/>
<line class="st2" x1="-182.2" y1="374.9" x2="-182.2" y2="386.9"/>
<line class="st2" x1="-186.2" y1="374.9" x2="-186.2" y2="386.9"/>
<circle class="st3" cx="-214.2" cy="396.9" r="22"/>
<g>
	<circle class="st4" cx="-214.2" cy="396.9" r="15.2"/>
</g>
</svg>
