<?xml version="1.0" encoding="utf-8"?>
<!-- Generator: Adobe Illustrator 19.0.0, SVG Export Plug-In . SVG Version: 6.00 Build 0)  -->
<svg version="1.1" id="Layer_1" xmlns="http://www.w3.org/2000/svg" xmlns:xlink="http://www.w3.org/1999/xlink" x="0px" y="0px"
	 viewBox="-256 348.7 97.7 96.3" style="enable-background:new -256 348.7 97.7 96.3;" xml:space="preserve">
<style type="text/css">
	.st0{fill:#DAE3E6;}
	.st1{fill:none;stroke:#393229;stroke-width:2;stroke-linecap:round;stroke-linejoin:round;stroke-miterlimit:10;}
	.st2{fill:#27B681;stroke:#393229;stroke-width:2;stroke-linecap:round;stroke-linejoin:round;stroke-miterlimit:10;}
	.st3{fill:none;stroke:#FFFFFF;stroke-width:2;stroke-linecap:round;stroke-linejoin:round;stroke-miterlimit:10;}
</style>
<g id="XMLID_53_">
	<circle id="XMLID_66_" class="st0" cx="-207.2" cy="396.7" r="45"/>
	<g id="XMLID_62_">
		<path id="XMLID_65_" class="st1" d="M-221.2,369.7c-2.6,2.7,2.4,5.4,0,8"/>
		<path id="XMLID_64_" class="st1" d="M-208.8,369.7c-2.6,2.7,2.4,5.4,0,8"/>
		<path id="XMLID_63_" class="st1" d="M-196.5,369.7c-2.6,2.7,2.4,5.4,0,8"/>
	</g>
	<path id="XMLID_59_" class="st2" d="M-178.9,389.7h-6.2v-5c0-1.7-1.3-3-3-3h-42c-1.7,0-3,1.3-3,3v24c0,2.1,0.7,3.8,2.2,5.3l4.7,4.4
		c2.2,2.2,4.9,3.3,8,3.3h18.1c3.1,0,5.8-1.1,8-3.3l15.9-15.8c0.7-0.7,1.1-1.6,1.1-2.7v-6.5C-175.2,391.3-176.9,389.7-178.9,389.7z
		 M-182.2,398.4c0,0.4-0.2,0.8-0.4,1.2l-1.4,1.7c-0.4,0.5-1.1,0.2-1.1-0.4v-3.8c0-0.8,0.7-1.5,1.5-1.5c0.8,0,1.5,0.7,1.5,1.5
		L-182.2,398.4L-182.2,398.4z"/>
	<g id="XMLID_55_">
		<line id="XMLID_58_" class="st3" x1="-229.2" y1="385.7" x2="-229.2" y2="391.7"/>
		<line id="XMLID_57_" class="st3" x1="-229.2" y1="395.7" x2="-229.2" y2="396.7"/>
		<line id="XMLID_56_" class="st3" x1="-188.7" y1="409.2" x2="-194.2" y2="414.7"/>
	</g>
</g>
</svg>
